G75*
%MOIN*%
%OFA0B0*%
%FSLAX24Y24*%
%IPPOS*%
%LPD*%
%AMOC8*
5,1,8,0,0,1.08239X$1,22.5*
%
%ADD10C,0.0080*%
%ADD11C,0.0110*%
%ADD12C,0.0060*%
%ADD13C,0.0007*%
%ADD14C,0.0027*%
%ADD15C,0.0026*%
D10*
X000333Y004000D02*
X000333Y010500D01*
X007333Y010500D01*
X007333Y004000D01*
X000333Y004000D01*
X000819Y004338D02*
X000819Y004578D01*
X000899Y004658D01*
X000979Y004578D01*
X000979Y004338D01*
X001139Y004338D02*
X001139Y004658D01*
X001059Y004658D01*
X000979Y004578D01*
X001334Y004578D02*
X001334Y004418D01*
X001414Y004338D01*
X001574Y004338D01*
X001654Y004418D01*
X001654Y004578D01*
X001574Y004658D01*
X001414Y004658D01*
X001334Y004578D01*
X001850Y004658D02*
X002090Y004658D01*
X002170Y004578D01*
X002170Y004418D01*
X002090Y004338D01*
X001850Y004338D01*
X002348Y004338D02*
X002428Y004338D01*
X002428Y004418D01*
X002348Y004418D01*
X002348Y004338D01*
X002623Y004418D02*
X002623Y004658D01*
X002944Y004658D02*
X002944Y004418D01*
X002863Y004338D01*
X002783Y004418D01*
X002703Y004338D01*
X002623Y004418D01*
X003139Y004418D02*
X003139Y004578D01*
X003219Y004658D01*
X003379Y004658D01*
X003459Y004578D01*
X003459Y004418D01*
X003379Y004338D01*
X003219Y004338D01*
X003139Y004418D01*
X003655Y004338D02*
X003655Y004578D01*
X003735Y004658D01*
X003975Y004658D01*
X003975Y004338D01*
X004164Y004338D02*
X004405Y004498D01*
X004164Y004658D01*
X004405Y004818D02*
X004405Y004338D01*
X004600Y004338D02*
X004600Y004578D01*
X004680Y004658D01*
X004840Y004658D01*
X004920Y004578D01*
X005116Y004658D02*
X005356Y004658D01*
X005436Y004578D01*
X005436Y004418D01*
X005356Y004338D01*
X005116Y004338D01*
X004920Y004338D02*
X004920Y004818D01*
X005631Y004578D02*
X005631Y004498D01*
X005951Y004498D01*
X005951Y004418D02*
X005951Y004578D01*
X005871Y004658D01*
X005711Y004658D01*
X005631Y004578D01*
X005711Y004338D02*
X005871Y004338D01*
X005951Y004418D01*
X006135Y004338D02*
X006215Y004418D01*
X006215Y004738D01*
X006295Y004658D02*
X006135Y004658D01*
X006491Y004738D02*
X006571Y004818D01*
X006731Y004818D01*
X006811Y004738D01*
X006811Y004418D01*
X006731Y004338D01*
X006571Y004338D01*
X006491Y004418D01*
X006491Y004738D01*
X006651Y004498D02*
X006491Y004338D01*
X007533Y004000D02*
X007533Y010500D01*
X014533Y010500D01*
X014533Y004000D01*
X007533Y004000D01*
X008011Y004388D02*
X008011Y004628D01*
X008091Y004708D01*
X008171Y004628D01*
X008171Y004388D01*
X008331Y004388D02*
X008331Y004708D01*
X008251Y004708D01*
X008171Y004628D01*
X008526Y004628D02*
X008606Y004708D01*
X008767Y004708D01*
X008847Y004628D01*
X008847Y004468D01*
X008767Y004388D01*
X008606Y004388D01*
X008526Y004468D01*
X008526Y004628D01*
X009042Y004708D02*
X009282Y004708D01*
X009362Y004628D01*
X009362Y004468D01*
X009282Y004388D01*
X009042Y004388D01*
X009540Y004388D02*
X009540Y004468D01*
X009620Y004468D01*
X009620Y004388D01*
X009540Y004388D01*
X009815Y004468D02*
X009815Y004708D01*
X009815Y004468D02*
X009896Y004388D01*
X009976Y004468D01*
X010056Y004388D01*
X010136Y004468D01*
X010136Y004708D01*
X010331Y004628D02*
X010331Y004468D01*
X010411Y004388D01*
X010571Y004388D01*
X010651Y004468D01*
X010651Y004628D01*
X010571Y004708D01*
X010411Y004708D01*
X010331Y004628D01*
X010847Y004628D02*
X010847Y004388D01*
X011167Y004388D02*
X011167Y004708D01*
X010927Y004708D01*
X010847Y004628D01*
X011357Y004708D02*
X011597Y004548D01*
X011357Y004388D01*
X011597Y004388D02*
X011597Y004868D01*
X011792Y004628D02*
X011792Y004388D01*
X012112Y004388D02*
X012112Y004868D01*
X012032Y004708D02*
X011872Y004708D01*
X011792Y004628D01*
X012032Y004708D02*
X012112Y004628D01*
X012308Y004708D02*
X012548Y004708D01*
X012628Y004628D01*
X012628Y004468D01*
X012548Y004388D01*
X012308Y004388D01*
X012823Y004548D02*
X013144Y004548D01*
X013144Y004468D02*
X013144Y004628D01*
X013064Y004708D01*
X012903Y004708D01*
X012823Y004628D01*
X012823Y004548D01*
X012903Y004388D02*
X013064Y004388D01*
X013144Y004468D01*
X013327Y004388D02*
X013407Y004468D01*
X013407Y004788D01*
X013487Y004708D02*
X013327Y004708D01*
X013683Y004788D02*
X013683Y004468D01*
X013763Y004388D01*
X013923Y004388D01*
X014003Y004468D01*
X014003Y004788D01*
X013923Y004868D01*
X013763Y004868D01*
X013683Y004788D01*
X013843Y004548D02*
X013683Y004388D01*
X014733Y004000D02*
X014733Y010500D01*
X021733Y010500D01*
X021733Y004000D01*
X014733Y004000D01*
X015234Y004355D02*
X015234Y004595D01*
X015314Y004676D01*
X015394Y004595D01*
X015394Y004355D01*
X015554Y004355D02*
X015554Y004676D01*
X015474Y004676D01*
X015394Y004595D01*
X015749Y004595D02*
X015829Y004676D01*
X015990Y004676D01*
X016070Y004595D01*
X016070Y004435D01*
X015990Y004355D01*
X015829Y004355D01*
X015749Y004435D01*
X015749Y004595D01*
X016265Y004676D02*
X016505Y004676D01*
X016585Y004595D01*
X016585Y004435D01*
X016505Y004355D01*
X016265Y004355D01*
X016763Y004355D02*
X016763Y004435D01*
X016843Y004435D01*
X016843Y004355D01*
X016763Y004355D01*
X017039Y004435D02*
X017039Y004676D01*
X017039Y004435D02*
X017119Y004355D01*
X017199Y004435D01*
X017279Y004355D01*
X017359Y004435D01*
X017359Y004676D01*
X017554Y004595D02*
X017634Y004676D01*
X017794Y004676D01*
X017874Y004595D01*
X017874Y004435D01*
X017794Y004355D01*
X017634Y004355D01*
X017554Y004435D01*
X017554Y004595D01*
X018070Y004595D02*
X018070Y004355D01*
X018070Y004595D02*
X018150Y004676D01*
X018390Y004676D01*
X018390Y004355D01*
X018580Y004355D02*
X018820Y004515D01*
X018580Y004676D01*
X018820Y004836D02*
X018820Y004355D01*
X019015Y004355D02*
X019015Y004595D01*
X019095Y004676D01*
X019255Y004676D01*
X019335Y004595D01*
X019531Y004676D02*
X019771Y004676D01*
X019851Y004595D01*
X019851Y004435D01*
X019771Y004355D01*
X019531Y004355D01*
X019335Y004355D02*
X019335Y004836D01*
X020046Y004595D02*
X020046Y004515D01*
X020367Y004515D01*
X020367Y004435D02*
X020367Y004595D01*
X020287Y004676D01*
X020126Y004676D01*
X020046Y004595D01*
X020126Y004355D02*
X020287Y004355D01*
X020367Y004435D01*
X020550Y004355D02*
X020630Y004435D01*
X020630Y004756D01*
X020710Y004676D02*
X020550Y004676D01*
X020906Y004756D02*
X020906Y004435D01*
X020986Y004355D01*
X021146Y004355D01*
X021226Y004435D01*
X021226Y004756D01*
X021146Y004836D01*
X020986Y004836D01*
X020906Y004756D01*
X021066Y004515D02*
X020906Y004355D01*
X021933Y004000D02*
X030433Y004000D01*
X030433Y010500D01*
X021933Y010500D01*
X021933Y004000D01*
X025272Y004724D02*
X025342Y004654D01*
X025552Y004654D01*
X025552Y004794D02*
X025342Y004794D01*
X025272Y004724D01*
X025342Y004794D02*
X025272Y004864D01*
X025272Y004934D01*
X025552Y004934D01*
X025482Y005114D02*
X025342Y005114D01*
X025272Y005184D01*
X025272Y005324D01*
X025342Y005394D01*
X025482Y005394D01*
X025552Y005324D01*
X025552Y005184D01*
X025482Y005114D01*
X025552Y005575D02*
X025552Y005785D01*
X025482Y005855D01*
X025342Y005855D01*
X025272Y005785D01*
X025272Y005575D01*
X025482Y006015D02*
X025552Y006015D01*
X025552Y006085D01*
X025482Y006085D01*
X025482Y006015D01*
X025482Y006265D02*
X025272Y006265D01*
X025482Y006265D02*
X025552Y006335D01*
X025482Y006405D01*
X025552Y006475D01*
X025482Y006545D01*
X025272Y006545D01*
X025342Y006726D02*
X025272Y006796D01*
X025272Y006936D01*
X025342Y007006D01*
X025482Y007006D01*
X025552Y006936D01*
X025552Y006796D01*
X025482Y006726D01*
X025342Y006726D01*
X025342Y007186D02*
X025552Y007186D01*
X025342Y007186D02*
X025272Y007256D01*
X025272Y007466D01*
X025552Y007466D01*
X025552Y007640D02*
X025412Y007850D01*
X025272Y007640D01*
X025132Y007850D02*
X025552Y007850D01*
X025552Y008030D02*
X025342Y008030D01*
X025272Y008100D01*
X025272Y008240D01*
X025342Y008310D01*
X025132Y008310D02*
X025552Y008310D01*
X025552Y008490D02*
X025552Y008701D01*
X025482Y008771D01*
X025342Y008771D01*
X025272Y008701D01*
X025272Y008490D01*
X025342Y008951D02*
X025412Y008951D01*
X025412Y009231D01*
X025482Y009231D02*
X025342Y009231D01*
X025272Y009161D01*
X025272Y009021D01*
X025342Y008951D01*
X025552Y009021D02*
X025552Y009161D01*
X025482Y009231D01*
X025552Y009398D02*
X025482Y009468D01*
X025202Y009468D01*
X025272Y009538D02*
X025272Y009398D01*
X025202Y009718D02*
X025482Y009718D01*
X025552Y009788D01*
X025552Y009928D01*
X025482Y009998D01*
X025202Y009998D01*
X025132Y009928D01*
X025132Y009788D01*
X025202Y009718D01*
X025412Y009858D02*
X025552Y009718D01*
X026833Y010000D02*
X026933Y010000D01*
X026933Y009700D01*
X028933Y009700D01*
X028933Y010000D01*
X029033Y010000D01*
X028933Y010000D02*
X028933Y010300D01*
X026933Y010300D01*
X026933Y010000D01*
X030433Y010700D02*
X030433Y017200D01*
X021933Y017200D01*
X021933Y010700D01*
X030433Y010700D01*
X021733Y010700D02*
X014733Y010700D01*
X014733Y017200D01*
X021733Y017200D01*
X021733Y010700D01*
X021220Y011106D02*
X021140Y011026D01*
X020980Y011026D01*
X020900Y011106D01*
X020900Y011426D01*
X020980Y011506D01*
X021140Y011506D01*
X021220Y011426D01*
X021220Y011106D01*
X021060Y011186D02*
X020900Y011026D01*
X020624Y011106D02*
X020544Y011026D01*
X020624Y011106D02*
X020624Y011426D01*
X020704Y011346D02*
X020544Y011346D01*
X020361Y011266D02*
X020280Y011346D01*
X020120Y011346D01*
X020040Y011266D01*
X020040Y011186D01*
X020361Y011186D01*
X020361Y011106D02*
X020361Y011266D01*
X020361Y011106D02*
X020280Y011026D01*
X020120Y011026D01*
X019845Y011106D02*
X019765Y011026D01*
X019525Y011026D01*
X019329Y011026D02*
X019329Y011506D01*
X019249Y011346D02*
X019089Y011346D01*
X019009Y011266D01*
X019009Y011026D01*
X018814Y011026D02*
X018814Y011506D01*
X018573Y011346D02*
X018814Y011186D01*
X018573Y011026D01*
X018384Y011026D02*
X018384Y011346D01*
X018144Y011346D01*
X018064Y011266D01*
X018064Y011026D01*
X017868Y011106D02*
X017868Y011266D01*
X017788Y011346D01*
X017628Y011346D01*
X017548Y011266D01*
X017548Y011106D01*
X017628Y011026D01*
X017788Y011026D01*
X017868Y011106D01*
X017353Y011106D02*
X017273Y011026D01*
X017193Y011106D01*
X017112Y011026D01*
X017032Y011106D01*
X017032Y011346D01*
X017353Y011346D02*
X017353Y011106D01*
X016837Y011106D02*
X016757Y011106D01*
X016757Y011026D01*
X016837Y011026D01*
X016837Y011106D01*
X016579Y011106D02*
X016579Y011266D01*
X016499Y011346D01*
X016259Y011346D01*
X016064Y011266D02*
X015983Y011346D01*
X015823Y011346D01*
X015743Y011266D01*
X015743Y011106D01*
X015823Y011026D01*
X015983Y011026D01*
X016064Y011106D01*
X016064Y011266D01*
X016259Y011026D02*
X016499Y011026D01*
X016579Y011106D01*
X015548Y011026D02*
X015548Y011346D01*
X015468Y011346D01*
X015388Y011266D01*
X015308Y011346D01*
X015228Y011266D01*
X015228Y011026D01*
X015388Y011026D02*
X015388Y011266D01*
X014533Y010700D02*
X007533Y010700D01*
X007533Y017200D01*
X014533Y017200D01*
X014533Y010700D01*
X013982Y011065D02*
X013902Y010985D01*
X013742Y010985D01*
X013662Y011065D01*
X013662Y011385D01*
X013742Y011465D01*
X013902Y011465D01*
X013982Y011385D01*
X013982Y011065D01*
X013822Y011145D02*
X013662Y010985D01*
X013387Y011065D02*
X013306Y010985D01*
X013387Y011065D02*
X013387Y011385D01*
X013467Y011305D02*
X013306Y011305D01*
X013123Y011225D02*
X013043Y011305D01*
X012883Y011305D01*
X012803Y011225D01*
X012803Y011145D01*
X013123Y011145D01*
X013123Y011065D02*
X013123Y011225D01*
X013123Y011065D02*
X013043Y010985D01*
X012883Y010985D01*
X012607Y011065D02*
X012527Y010985D01*
X012287Y010985D01*
X012092Y010985D02*
X012092Y011465D01*
X012012Y011305D02*
X011851Y011305D01*
X011771Y011225D01*
X011771Y010985D01*
X011576Y010985D02*
X011576Y011465D01*
X011336Y011305D02*
X011576Y011145D01*
X011336Y010985D01*
X011146Y010985D02*
X011146Y011305D01*
X010906Y011305D01*
X010826Y011225D01*
X010826Y010985D01*
X010631Y011065D02*
X010631Y011225D01*
X010551Y011305D01*
X010390Y011305D01*
X010310Y011225D01*
X010310Y011065D01*
X010390Y010985D01*
X010551Y010985D01*
X010631Y011065D01*
X010115Y011065D02*
X010115Y011305D01*
X010115Y011065D02*
X010035Y010985D01*
X009955Y011065D01*
X009875Y010985D01*
X009795Y011065D01*
X009795Y011305D01*
X009599Y011065D02*
X009519Y011065D01*
X009519Y010985D01*
X009599Y010985D01*
X009599Y011065D01*
X009342Y011065D02*
X009342Y011225D01*
X009261Y011305D01*
X009021Y011305D01*
X008826Y011225D02*
X008826Y011065D01*
X008746Y010985D01*
X008586Y010985D01*
X008506Y011065D01*
X008506Y011225D01*
X008586Y011305D01*
X008746Y011305D01*
X008826Y011225D01*
X009021Y010985D02*
X009261Y010985D01*
X009342Y011065D01*
X008310Y010985D02*
X008310Y011305D01*
X008230Y011305D01*
X008150Y011225D01*
X008070Y011305D01*
X007990Y011225D01*
X007990Y010985D01*
X008150Y010985D02*
X008150Y011225D01*
X007333Y010700D02*
X007333Y017200D01*
X000333Y017200D01*
X000333Y010700D01*
X007333Y010700D01*
X012012Y011305D02*
X012092Y011225D01*
X012287Y011305D02*
X012527Y011305D01*
X012607Y011225D01*
X012607Y011065D01*
X006834Y013141D02*
X006834Y013462D01*
X006754Y013542D01*
X006594Y013542D01*
X006514Y013462D01*
X006514Y013141D01*
X006594Y013061D01*
X006754Y013061D01*
X006834Y013141D01*
X006674Y013221D02*
X006514Y013061D01*
X006239Y013141D02*
X006159Y013061D01*
X006239Y013141D02*
X006239Y013462D01*
X006319Y013382D02*
X006159Y013382D01*
X005975Y013302D02*
X005975Y013141D01*
X005895Y013061D01*
X005735Y013061D01*
X005655Y013221D02*
X005975Y013221D01*
X005975Y013302D02*
X005895Y013382D01*
X005735Y013382D01*
X005655Y013302D01*
X005655Y013221D01*
X005459Y013141D02*
X005379Y013061D01*
X005139Y013061D01*
X004944Y013061D02*
X004944Y013542D01*
X004864Y013382D02*
X004703Y013382D01*
X004623Y013302D01*
X004623Y013061D01*
X004428Y013061D02*
X004428Y013542D01*
X004188Y013382D02*
X004428Y013221D01*
X004188Y013061D01*
X003998Y013061D02*
X003998Y013382D01*
X003758Y013382D01*
X003678Y013302D01*
X003678Y013061D01*
X003483Y013141D02*
X003403Y013061D01*
X003242Y013061D01*
X003162Y013141D01*
X003162Y013302D01*
X003242Y013382D01*
X003403Y013382D01*
X003483Y013302D01*
X003483Y013141D01*
X002967Y013141D02*
X002887Y013061D01*
X002807Y013141D01*
X002727Y013061D01*
X002647Y013141D01*
X002647Y013382D01*
X002451Y013141D02*
X002371Y013141D01*
X002371Y013061D01*
X002451Y013061D01*
X002451Y013141D01*
X002194Y013141D02*
X002113Y013061D01*
X001873Y013061D01*
X001678Y013141D02*
X001598Y013061D01*
X001438Y013061D01*
X001358Y013141D01*
X001358Y013302D01*
X001438Y013382D01*
X001598Y013382D01*
X001678Y013302D01*
X001678Y013141D01*
X001873Y013382D02*
X002113Y013382D01*
X002194Y013302D01*
X002194Y013141D01*
X002967Y013141D02*
X002967Y013382D01*
X001162Y013382D02*
X001162Y013061D01*
X001002Y013061D02*
X001002Y013302D01*
X000922Y013382D01*
X000842Y013302D01*
X000842Y013061D01*
X001002Y013302D02*
X001082Y013382D01*
X001162Y013382D01*
X004864Y013382D02*
X004944Y013302D01*
X005139Y013382D02*
X005379Y013382D01*
X005459Y013302D01*
X005459Y013141D01*
X019249Y011346D02*
X019329Y011266D01*
X019525Y011346D02*
X019765Y011346D01*
X019845Y011266D01*
X019845Y011106D01*
D11*
X022477Y011048D02*
X022477Y011343D01*
X022575Y011441D01*
X022673Y011343D01*
X022673Y011048D01*
X022870Y011048D02*
X022870Y011441D01*
X022772Y011441D01*
X022673Y011343D01*
X023121Y011343D02*
X023121Y011146D01*
X023219Y011048D01*
X023416Y011048D01*
X023515Y011146D01*
X023515Y011343D01*
X023416Y011441D01*
X023219Y011441D01*
X023121Y011343D01*
X023766Y011441D02*
X024061Y011441D01*
X024159Y011343D01*
X024159Y011146D01*
X024061Y011048D01*
X023766Y011048D01*
X024383Y011048D02*
X024383Y011146D01*
X024482Y011146D01*
X024482Y011048D01*
X024383Y011048D01*
X024732Y011146D02*
X024732Y011441D01*
X024732Y011146D02*
X024831Y011048D01*
X024929Y011146D01*
X025028Y011048D01*
X025126Y011146D01*
X025126Y011441D01*
X025377Y011343D02*
X025377Y011146D01*
X025475Y011048D01*
X025672Y011048D01*
X025771Y011146D01*
X025771Y011343D01*
X025672Y011441D01*
X025475Y011441D01*
X025377Y011343D01*
X026022Y011343D02*
X026022Y011048D01*
X026415Y011048D02*
X026415Y011441D01*
X026120Y011441D01*
X026022Y011343D01*
X026657Y011441D02*
X026952Y011244D01*
X026657Y011048D01*
X026952Y011048D02*
X026952Y011638D01*
X027203Y011343D02*
X027203Y011048D01*
X027597Y011048D02*
X027597Y011638D01*
X027498Y011441D02*
X027302Y011441D01*
X027203Y011343D01*
X027498Y011441D02*
X027597Y011343D01*
X027848Y011441D02*
X028143Y011441D01*
X028241Y011343D01*
X028241Y011146D01*
X028143Y011048D01*
X027848Y011048D01*
X028492Y011244D02*
X028492Y011343D01*
X028591Y011441D01*
X028788Y011441D01*
X028886Y011343D01*
X028886Y011146D01*
X028788Y011048D01*
X028591Y011048D01*
X028492Y011244D02*
X028886Y011244D01*
X029119Y011048D02*
X029217Y011146D01*
X029217Y011540D01*
X029119Y011441D02*
X029316Y011441D01*
X029567Y011540D02*
X029567Y011146D01*
X029665Y011048D01*
X029862Y011048D01*
X029960Y011146D01*
X029960Y011540D01*
X029862Y011638D01*
X029665Y011638D01*
X029567Y011540D01*
X029763Y011244D02*
X029567Y011048D01*
D12*
X028456Y010057D02*
X028342Y010170D01*
X028342Y009830D01*
X028229Y009830D02*
X028456Y009830D01*
X028087Y009887D02*
X027861Y010114D01*
X027861Y009887D01*
X027917Y009830D01*
X028031Y009830D01*
X028087Y009887D01*
X028087Y010114D01*
X028031Y010170D01*
X027917Y010170D01*
X027861Y010114D01*
X027719Y010170D02*
X027719Y009830D01*
X027719Y009943D02*
X027492Y010170D01*
X027662Y010000D02*
X027492Y009830D01*
X024577Y009557D02*
X024577Y009330D01*
X024350Y009330D02*
X024350Y009557D01*
X024463Y009670D01*
X024577Y009557D01*
X024209Y009500D02*
X024209Y009613D01*
X024152Y009670D01*
X024038Y009670D01*
X023982Y009613D01*
X023982Y009500D02*
X024095Y009443D01*
X024152Y009443D01*
X024209Y009500D01*
X024209Y009330D02*
X023982Y009330D01*
X023982Y009500D01*
X023840Y009500D02*
X023613Y009500D01*
X023727Y009613D02*
X023727Y009386D01*
X023783Y008920D02*
X023840Y008863D01*
X023840Y008750D01*
X023727Y008750D01*
X023840Y008636D02*
X023783Y008580D01*
X023670Y008580D01*
X023613Y008636D01*
X023613Y008863D01*
X023670Y008920D01*
X023783Y008920D01*
X023982Y008920D02*
X023982Y008580D01*
X024209Y008920D01*
X024209Y008580D01*
X024350Y008580D02*
X024520Y008580D01*
X024577Y008636D01*
X024577Y008863D01*
X024520Y008920D01*
X024350Y008920D01*
X024350Y008580D01*
X024350Y007920D02*
X024520Y007920D01*
X024577Y007863D01*
X024577Y007636D01*
X024520Y007580D01*
X024350Y007580D01*
X024350Y007920D01*
X024209Y007920D02*
X024209Y007580D01*
X023982Y007580D02*
X024209Y007920D01*
X023982Y007920D02*
X023982Y007580D01*
X023840Y007636D02*
X023783Y007580D01*
X023670Y007580D01*
X023613Y007636D01*
X023613Y007863D01*
X023670Y007920D01*
X023783Y007920D01*
X023840Y007863D01*
X023840Y007750D01*
X023727Y007750D01*
X023727Y006920D02*
X023840Y006807D01*
X023840Y006580D01*
X023982Y006580D02*
X024095Y006580D01*
X024038Y006580D02*
X024038Y006920D01*
X023982Y006920D02*
X024095Y006920D01*
X024227Y006920D02*
X024227Y006580D01*
X024454Y006920D01*
X024454Y006580D01*
X023727Y006920D02*
X023613Y006807D01*
X023613Y006580D01*
X021003Y007870D02*
X020890Y007757D01*
X020663Y007757D01*
X020890Y007983D02*
X021003Y007870D01*
X020890Y007983D02*
X020663Y007983D01*
X020663Y008125D02*
X020663Y008352D01*
X020833Y008352D01*
X020776Y008238D01*
X020776Y008182D01*
X020833Y008125D01*
X020947Y008125D01*
X021003Y008182D01*
X021003Y008295D01*
X020947Y008352D01*
X020833Y008493D02*
X020833Y008720D01*
X020720Y008607D02*
X020947Y008607D01*
X020003Y008663D02*
X020003Y008550D01*
X019947Y008493D01*
X019833Y008493D01*
X019833Y008607D01*
X019720Y008720D02*
X019947Y008720D01*
X020003Y008663D01*
X019720Y008720D02*
X019663Y008663D01*
X019663Y008550D01*
X019720Y008493D01*
X019663Y008352D02*
X020003Y008125D01*
X019663Y008125D01*
X019663Y007983D02*
X019663Y007813D01*
X019720Y007757D01*
X019947Y007757D01*
X020003Y007813D01*
X020003Y007983D01*
X019663Y007983D01*
X019003Y007983D02*
X019003Y007813D01*
X018947Y007757D01*
X018720Y007757D01*
X018663Y007813D01*
X018663Y007983D01*
X019003Y007983D01*
X019003Y008125D02*
X018663Y008125D01*
X018663Y008352D02*
X019003Y008125D01*
X019003Y008352D02*
X018663Y008352D01*
X018720Y008493D02*
X018663Y008550D01*
X018663Y008663D01*
X018720Y008720D01*
X018947Y008720D01*
X019003Y008663D01*
X019003Y008550D01*
X018947Y008493D01*
X018833Y008493D01*
X018833Y008607D01*
X019663Y008352D02*
X020003Y008352D01*
X017918Y008307D02*
X017918Y008193D01*
X017918Y008250D02*
X017578Y008250D01*
X017578Y008307D02*
X017578Y008193D01*
X017578Y008061D02*
X017918Y007834D01*
X017578Y007834D01*
X017578Y008061D02*
X017918Y008061D01*
X017805Y008448D02*
X017578Y008448D01*
X017805Y008448D02*
X017918Y008562D01*
X017805Y008675D01*
X017578Y008675D01*
X015893Y008695D02*
X015666Y008695D01*
X015553Y008582D01*
X015666Y008468D01*
X015893Y008468D01*
X015837Y008327D02*
X015610Y008100D01*
X015837Y008100D01*
X015893Y008157D01*
X015893Y008270D01*
X015837Y008327D01*
X015610Y008327D01*
X015553Y008270D01*
X015553Y008157D01*
X015610Y008100D01*
X015723Y008468D02*
X015723Y008695D01*
X013753Y008295D02*
X013697Y008352D01*
X013753Y008295D02*
X013753Y008182D01*
X013697Y008125D01*
X013583Y008125D01*
X013526Y008182D01*
X013526Y008238D01*
X013583Y008352D01*
X013413Y008352D01*
X013413Y008125D01*
X013413Y007983D02*
X013640Y007983D01*
X013753Y007870D01*
X013640Y007757D01*
X013413Y007757D01*
X012753Y007813D02*
X012753Y007983D01*
X012413Y007983D01*
X012413Y007813D01*
X012470Y007757D01*
X012697Y007757D01*
X012753Y007813D01*
X012753Y008125D02*
X012413Y008125D01*
X012413Y008352D02*
X012753Y008125D01*
X012753Y008352D02*
X012413Y008352D01*
X012470Y008493D02*
X012413Y008550D01*
X012413Y008663D01*
X012470Y008720D01*
X012697Y008720D01*
X012753Y008663D01*
X012753Y008550D01*
X012697Y008493D01*
X012583Y008493D01*
X012583Y008607D01*
X011753Y008663D02*
X011753Y008550D01*
X011697Y008493D01*
X011583Y008493D01*
X011583Y008607D01*
X011470Y008720D02*
X011413Y008663D01*
X011413Y008550D01*
X011470Y008493D01*
X011413Y008352D02*
X011753Y008125D01*
X011413Y008125D01*
X011413Y007983D02*
X011413Y007813D01*
X011470Y007757D01*
X011697Y007757D01*
X011753Y007813D01*
X011753Y007983D01*
X011413Y007983D01*
X010753Y007879D02*
X010413Y007879D01*
X010413Y008106D02*
X010753Y007879D01*
X010753Y008106D02*
X010413Y008106D01*
X010413Y008238D02*
X010413Y008352D01*
X010413Y008295D02*
X010753Y008295D01*
X010753Y008352D02*
X010753Y008238D01*
X011413Y008352D02*
X011753Y008352D01*
X011753Y008663D02*
X011697Y008720D01*
X011470Y008720D01*
X010753Y008607D02*
X010640Y008493D01*
X010413Y008493D01*
X010413Y008720D02*
X010640Y008720D01*
X010753Y008607D01*
X008753Y008720D02*
X008526Y008720D01*
X008413Y008607D01*
X008526Y008493D01*
X008753Y008493D01*
X008697Y008352D02*
X008470Y008352D01*
X008413Y008295D01*
X008413Y008182D01*
X008470Y008125D01*
X008697Y008352D01*
X008753Y008295D01*
X008753Y008182D01*
X008697Y008125D01*
X008470Y008125D01*
X008583Y008493D02*
X008583Y008720D01*
X006503Y008295D02*
X006447Y008352D01*
X006503Y008295D02*
X006503Y008182D01*
X006447Y008125D01*
X006333Y008125D01*
X006276Y008182D01*
X006276Y008238D01*
X006333Y008352D01*
X006163Y008352D01*
X006163Y008125D01*
X006163Y007983D02*
X006390Y007983D01*
X006503Y007870D01*
X006390Y007757D01*
X006163Y007757D01*
X005503Y007813D02*
X005503Y007983D01*
X005163Y007983D01*
X005163Y007813D01*
X005220Y007757D01*
X005447Y007757D01*
X005503Y007813D01*
X005503Y008125D02*
X005163Y008125D01*
X005163Y008352D02*
X005503Y008125D01*
X005503Y008352D02*
X005163Y008352D01*
X005220Y008493D02*
X005163Y008550D01*
X005163Y008663D01*
X005220Y008720D01*
X005447Y008720D01*
X005503Y008663D01*
X005503Y008550D01*
X005447Y008493D01*
X005333Y008493D01*
X005333Y008607D01*
X004503Y008663D02*
X004503Y008550D01*
X004447Y008493D01*
X004333Y008493D01*
X004333Y008607D01*
X004220Y008720D02*
X004447Y008720D01*
X004503Y008663D01*
X004220Y008720D02*
X004163Y008663D01*
X004163Y008550D01*
X004220Y008493D01*
X004163Y008352D02*
X004503Y008125D01*
X004163Y008125D01*
X004163Y007983D02*
X004163Y007813D01*
X004220Y007757D01*
X004447Y007757D01*
X004503Y007813D01*
X004503Y007983D01*
X004163Y007983D01*
X003503Y007879D02*
X003163Y007879D01*
X003163Y008106D02*
X003503Y007879D01*
X003503Y008106D02*
X003163Y008106D01*
X003163Y008238D02*
X003163Y008352D01*
X003163Y008295D02*
X003503Y008295D01*
X003503Y008352D02*
X003503Y008238D01*
X004163Y008352D02*
X004503Y008352D01*
X003503Y008607D02*
X003390Y008493D01*
X003163Y008493D01*
X003163Y008720D02*
X003390Y008720D01*
X003503Y008607D01*
X001503Y008720D02*
X001276Y008720D01*
X001163Y008607D01*
X001276Y008493D01*
X001503Y008493D01*
X001447Y008352D02*
X001220Y008352D01*
X001163Y008295D01*
X001163Y008182D01*
X001220Y008125D01*
X001447Y008352D01*
X001503Y008295D01*
X001503Y008182D01*
X001447Y008125D01*
X001220Y008125D01*
X001333Y008493D02*
X001333Y008720D01*
X006220Y008607D02*
X006447Y008607D01*
X006333Y008720D02*
X006333Y008493D01*
X013470Y008607D02*
X013697Y008607D01*
X013583Y008720D02*
X013583Y008493D01*
X023613Y004920D02*
X023613Y004693D01*
X023727Y004580D01*
X023840Y004693D01*
X023840Y004920D01*
X023982Y004863D02*
X024209Y004636D01*
X024209Y004863D01*
X024152Y004920D01*
X024038Y004920D01*
X023982Y004863D01*
X023982Y004636D01*
X024038Y004580D01*
X024152Y004580D01*
X024209Y004636D01*
X023840Y004750D02*
X023613Y004750D01*
X025413Y014629D02*
X025753Y014629D01*
X025413Y014856D01*
X025753Y014856D01*
X025753Y014988D02*
X025753Y015102D01*
X025753Y015045D02*
X025413Y015045D01*
X025413Y015102D02*
X025413Y014988D01*
X025413Y015243D02*
X025640Y015243D01*
X025753Y015357D01*
X025640Y015470D01*
X025413Y015470D01*
X026413Y015413D02*
X026413Y015300D01*
X026470Y015243D01*
X026583Y015243D02*
X026583Y015357D01*
X026583Y015243D02*
X026697Y015243D01*
X026753Y015300D01*
X026753Y015413D01*
X026697Y015470D01*
X026470Y015470D01*
X026413Y015413D01*
X026413Y015102D02*
X026753Y014875D01*
X026413Y014875D01*
X026413Y014733D02*
X026413Y014563D01*
X026470Y014507D01*
X026697Y014507D01*
X026753Y014563D01*
X026753Y014733D01*
X026413Y014733D01*
X026413Y015102D02*
X026753Y015102D01*
X027413Y015102D02*
X027753Y014875D01*
X027413Y014875D01*
X027413Y014733D02*
X027413Y014563D01*
X027470Y014507D01*
X027697Y014507D01*
X027753Y014563D01*
X027753Y014733D01*
X027413Y014733D01*
X027413Y015102D02*
X027753Y015102D01*
X027697Y015243D02*
X027583Y015243D01*
X027583Y015357D01*
X027470Y015470D02*
X027697Y015470D01*
X027753Y015413D01*
X027753Y015300D01*
X027697Y015243D01*
X027470Y015243D02*
X027413Y015300D01*
X027413Y015413D01*
X027470Y015470D01*
X028470Y015357D02*
X028697Y015357D01*
X028583Y015470D02*
X028583Y015243D01*
X028583Y015102D02*
X028526Y014988D01*
X028526Y014932D01*
X028583Y014875D01*
X028697Y014875D01*
X028753Y014932D01*
X028753Y015045D01*
X028697Y015102D01*
X028583Y015102D02*
X028413Y015102D01*
X028413Y014875D01*
X028413Y014733D02*
X028640Y014733D01*
X028753Y014620D01*
X028640Y014507D01*
X028413Y014507D01*
X023753Y014932D02*
X023753Y015045D01*
X023697Y015102D01*
X023470Y014875D01*
X023697Y014875D01*
X023753Y014932D01*
X023697Y015102D02*
X023470Y015102D01*
X023413Y015045D01*
X023413Y014932D01*
X023470Y014875D01*
X023526Y015243D02*
X023753Y015243D01*
X023583Y015243D02*
X023583Y015470D01*
X023526Y015470D02*
X023413Y015357D01*
X023526Y015243D01*
X023526Y015470D02*
X023753Y015470D01*
X021003Y015045D02*
X021003Y014932D01*
X020947Y014875D01*
X020833Y014875D01*
X020776Y014932D01*
X020776Y014988D01*
X020833Y015102D01*
X020663Y015102D01*
X020663Y014875D01*
X020663Y014733D02*
X020890Y014733D01*
X021003Y014620D01*
X020890Y014507D01*
X020663Y014507D01*
X020003Y014563D02*
X019947Y014507D01*
X019720Y014507D01*
X019663Y014563D01*
X019663Y014733D01*
X020003Y014733D01*
X020003Y014563D01*
X020003Y014875D02*
X019663Y014875D01*
X019663Y015102D02*
X020003Y014875D01*
X020003Y015102D02*
X019663Y015102D01*
X019720Y015243D02*
X019663Y015300D01*
X019663Y015413D01*
X019720Y015470D01*
X019947Y015470D01*
X020003Y015413D01*
X020003Y015300D01*
X019947Y015243D01*
X019833Y015243D01*
X019833Y015357D01*
X019003Y015413D02*
X019003Y015300D01*
X018947Y015243D01*
X018833Y015243D01*
X018833Y015357D01*
X018720Y015470D02*
X018947Y015470D01*
X019003Y015413D01*
X018720Y015470D02*
X018663Y015413D01*
X018663Y015300D01*
X018720Y015243D01*
X018663Y015102D02*
X019003Y014875D01*
X018663Y014875D01*
X018663Y014733D02*
X018663Y014563D01*
X018720Y014507D01*
X018947Y014507D01*
X019003Y014563D01*
X019003Y014733D01*
X018663Y014733D01*
X018663Y015102D02*
X019003Y015102D01*
X018003Y015102D02*
X018003Y014988D01*
X018003Y015045D02*
X017663Y015045D01*
X017663Y015102D02*
X017663Y014988D01*
X017663Y014856D02*
X018003Y014629D01*
X017663Y014629D01*
X017663Y014856D02*
X018003Y014856D01*
X017890Y015243D02*
X017663Y015243D01*
X017890Y015243D02*
X018003Y015357D01*
X017890Y015470D01*
X017663Y015470D01*
X016003Y015470D02*
X015776Y015470D01*
X015663Y015357D01*
X015776Y015243D01*
X016003Y015243D01*
X015947Y015102D02*
X015720Y015102D01*
X015663Y015045D01*
X015663Y014932D01*
X015720Y014875D01*
X015947Y015102D01*
X016003Y015045D01*
X016003Y014932D01*
X015947Y014875D01*
X015720Y014875D01*
X015833Y015243D02*
X015833Y015470D01*
X013753Y015045D02*
X013753Y014932D01*
X013697Y014875D01*
X013583Y014875D01*
X013526Y014932D01*
X013526Y014988D01*
X013583Y015102D01*
X013413Y015102D01*
X013413Y014875D01*
X013413Y014733D02*
X013640Y014733D01*
X013753Y014620D01*
X013640Y014507D01*
X013413Y014507D01*
X012753Y014563D02*
X012697Y014507D01*
X012470Y014507D01*
X012413Y014563D01*
X012413Y014733D01*
X012753Y014733D01*
X012753Y014563D01*
X012753Y014875D02*
X012413Y014875D01*
X012413Y015102D02*
X012753Y014875D01*
X012753Y015102D02*
X012413Y015102D01*
X012470Y015243D02*
X012413Y015300D01*
X012413Y015413D01*
X012470Y015470D01*
X012697Y015470D01*
X012753Y015413D01*
X012753Y015300D01*
X012697Y015243D01*
X012583Y015243D01*
X012583Y015357D01*
X011753Y015413D02*
X011753Y015300D01*
X011697Y015243D01*
X011583Y015243D01*
X011583Y015357D01*
X011470Y015470D02*
X011697Y015470D01*
X011753Y015413D01*
X011470Y015470D02*
X011413Y015413D01*
X011413Y015300D01*
X011470Y015243D01*
X011413Y015102D02*
X011753Y014875D01*
X011413Y014875D01*
X011413Y014733D02*
X011413Y014563D01*
X011470Y014507D01*
X011697Y014507D01*
X011753Y014563D01*
X011753Y014733D01*
X011413Y014733D01*
X010753Y014629D02*
X010413Y014629D01*
X010413Y014856D02*
X010753Y014629D01*
X010753Y014856D02*
X010413Y014856D01*
X010413Y014988D02*
X010413Y015102D01*
X010413Y015045D02*
X010753Y015045D01*
X010753Y015102D02*
X010753Y014988D01*
X011413Y015102D02*
X011753Y015102D01*
X010753Y015357D02*
X010640Y015243D01*
X010413Y015243D01*
X010413Y015470D02*
X010640Y015470D01*
X010753Y015357D01*
X008753Y015470D02*
X008526Y015470D01*
X008413Y015357D01*
X008526Y015243D01*
X008753Y015243D01*
X008697Y015102D02*
X008470Y015102D01*
X008413Y015045D01*
X008413Y014932D01*
X008470Y014875D01*
X008697Y015102D01*
X008753Y015045D01*
X008753Y014932D01*
X008697Y014875D01*
X008470Y014875D01*
X008583Y015243D02*
X008583Y015470D01*
X006503Y015045D02*
X006503Y014932D01*
X006447Y014875D01*
X006333Y014875D01*
X006276Y014932D01*
X006276Y014988D01*
X006333Y015102D01*
X006163Y015102D01*
X006163Y014875D01*
X006163Y014733D02*
X006390Y014733D01*
X006503Y014620D01*
X006390Y014507D01*
X006163Y014507D01*
X005503Y014563D02*
X005447Y014507D01*
X005220Y014507D01*
X005163Y014563D01*
X005163Y014733D01*
X005503Y014733D01*
X005503Y014563D01*
X005503Y014875D02*
X005163Y014875D01*
X005163Y015102D02*
X005503Y014875D01*
X005503Y015102D02*
X005163Y015102D01*
X005220Y015243D02*
X005163Y015300D01*
X005163Y015413D01*
X005220Y015470D01*
X005447Y015470D01*
X005503Y015413D01*
X005503Y015300D01*
X005447Y015243D01*
X005333Y015243D01*
X005333Y015357D01*
X004503Y015413D02*
X004503Y015300D01*
X004447Y015243D01*
X004333Y015243D01*
X004333Y015357D01*
X004220Y015470D02*
X004447Y015470D01*
X004503Y015413D01*
X004220Y015470D02*
X004163Y015413D01*
X004163Y015300D01*
X004220Y015243D01*
X004163Y015102D02*
X004503Y014875D01*
X004163Y014875D01*
X004163Y014733D02*
X004163Y014563D01*
X004220Y014507D01*
X004447Y014507D01*
X004503Y014563D01*
X004503Y014733D01*
X004163Y014733D01*
X003503Y014629D02*
X003163Y014629D01*
X003163Y014856D02*
X003503Y014629D01*
X003503Y014856D02*
X003163Y014856D01*
X003163Y014988D02*
X003163Y015102D01*
X003163Y015045D02*
X003503Y015045D01*
X003503Y015102D02*
X003503Y014988D01*
X004163Y015102D02*
X004503Y015102D01*
X003503Y015357D02*
X003390Y015243D01*
X003163Y015243D01*
X003163Y015470D02*
X003390Y015470D01*
X003503Y015357D01*
X001503Y015470D02*
X001276Y015470D01*
X001163Y015357D01*
X001276Y015243D01*
X001503Y015243D01*
X001447Y015102D02*
X001220Y015102D01*
X001163Y015045D01*
X001163Y014932D01*
X001220Y014875D01*
X001447Y015102D01*
X001503Y015045D01*
X001503Y014932D01*
X001447Y014875D01*
X001220Y014875D01*
X001333Y015243D02*
X001333Y015470D01*
X006220Y015357D02*
X006447Y015357D01*
X006333Y015470D02*
X006333Y015243D01*
X006447Y015102D02*
X006503Y015045D01*
X013470Y015357D02*
X013697Y015357D01*
X013583Y015470D02*
X013583Y015243D01*
X013697Y015102D02*
X013753Y015045D01*
X020720Y015357D02*
X020947Y015357D01*
X020833Y015470D02*
X020833Y015243D01*
X020947Y015102D02*
X021003Y015045D01*
D13*
X026020Y014450D02*
X026023Y014454D01*
X026158Y014454D01*
X026157Y014454D02*
X026153Y014462D01*
X026153Y014470D01*
X026146Y014474D01*
X026142Y014478D01*
X026138Y014486D01*
X026134Y014490D01*
X026126Y014494D01*
X026118Y014494D01*
X026114Y014498D01*
X026106Y014498D01*
X026098Y014502D01*
X026083Y014502D01*
X026075Y014498D01*
X026071Y014498D01*
X026063Y014494D01*
X026055Y014494D01*
X026051Y014490D01*
X026043Y014486D01*
X026039Y014478D01*
X026031Y014470D01*
X026023Y014454D01*
X026020Y014450D02*
X026020Y014407D01*
X026027Y014391D01*
X026031Y014387D01*
X026035Y014380D01*
X026043Y014372D01*
X026051Y014368D01*
X026055Y014364D01*
X026063Y014360D01*
X026071Y014360D01*
X026075Y014356D01*
X026106Y014356D01*
X026114Y014360D01*
X026118Y014360D01*
X026134Y014368D01*
X026153Y014387D01*
X026153Y014391D01*
X026161Y014407D01*
X026161Y014415D01*
X026165Y014419D01*
X026165Y014435D01*
X026161Y014443D01*
X026020Y014443D01*
X026020Y014438D02*
X026163Y014438D01*
X026161Y014443D02*
X026161Y014450D01*
X026157Y014454D01*
X026155Y014459D02*
X026026Y014459D01*
X026028Y014464D02*
X026153Y014464D01*
X026153Y014469D02*
X026031Y014469D01*
X026036Y014475D02*
X026145Y014475D01*
X026141Y014480D02*
X026040Y014480D01*
X026043Y014485D02*
X026138Y014485D01*
X026133Y014490D02*
X026051Y014490D01*
X026066Y014495D02*
X026116Y014495D01*
X026100Y014501D02*
X026081Y014501D01*
X026075Y014443D02*
X026075Y014021D01*
X026106Y014021D01*
X026106Y014443D01*
X026075Y014443D01*
X026075Y014438D02*
X026106Y014438D01*
X026106Y014433D02*
X026075Y014433D01*
X026075Y014428D02*
X026106Y014428D01*
X026106Y014423D02*
X026075Y014423D01*
X026075Y014417D02*
X026106Y014417D01*
X026106Y014412D02*
X026075Y014412D01*
X026075Y014407D02*
X026106Y014407D01*
X026106Y014402D02*
X026075Y014402D01*
X026075Y014397D02*
X026106Y014397D01*
X026106Y014392D02*
X026075Y014392D01*
X026075Y014386D02*
X026106Y014386D01*
X026106Y014381D02*
X026075Y014381D01*
X026075Y014376D02*
X026106Y014376D01*
X026106Y014371D02*
X026075Y014371D01*
X026075Y014366D02*
X026106Y014366D01*
X026106Y014360D02*
X026075Y014360D01*
X026075Y014355D02*
X026106Y014355D01*
X026106Y014350D02*
X026075Y014350D01*
X026075Y014345D02*
X026106Y014345D01*
X026106Y014340D02*
X026075Y014340D01*
X026075Y014334D02*
X026106Y014334D01*
X026106Y014329D02*
X026075Y014329D01*
X026075Y014324D02*
X026106Y014324D01*
X026106Y014319D02*
X026075Y014319D01*
X026075Y014314D02*
X026106Y014314D01*
X026106Y014308D02*
X026075Y014308D01*
X026075Y014303D02*
X026106Y014303D01*
X026106Y014298D02*
X026075Y014298D01*
X026075Y014293D02*
X026106Y014293D01*
X026106Y014288D02*
X026075Y014288D01*
X026075Y014282D02*
X026106Y014282D01*
X026106Y014277D02*
X026075Y014277D01*
X026075Y014272D02*
X026106Y014272D01*
X026106Y014267D02*
X026075Y014267D01*
X026075Y014262D02*
X026106Y014262D01*
X026106Y014256D02*
X026075Y014256D01*
X026075Y014251D02*
X026106Y014251D01*
X026106Y014246D02*
X026075Y014246D01*
X026075Y014241D02*
X026106Y014241D01*
X026106Y014236D02*
X026075Y014236D01*
X026075Y014231D02*
X026106Y014231D01*
X026106Y014225D02*
X026075Y014225D01*
X026075Y014220D02*
X026106Y014220D01*
X026106Y014215D02*
X026075Y014215D01*
X026075Y014210D02*
X026106Y014210D01*
X026106Y014205D02*
X026075Y014205D01*
X026075Y014199D02*
X026106Y014199D01*
X026106Y014194D02*
X026075Y014194D01*
X026075Y014189D02*
X026106Y014189D01*
X026106Y014184D02*
X026075Y014184D01*
X026075Y014179D02*
X026106Y014179D01*
X026106Y014173D02*
X026075Y014173D01*
X026075Y014168D02*
X026106Y014168D01*
X026106Y014163D02*
X026075Y014163D01*
X026075Y014158D02*
X026106Y014158D01*
X026106Y014153D02*
X026075Y014153D01*
X026075Y014147D02*
X026106Y014147D01*
X026106Y014142D02*
X026075Y014142D01*
X026075Y014137D02*
X026106Y014137D01*
X026106Y014132D02*
X026075Y014132D01*
X026075Y014127D02*
X026106Y014127D01*
X026106Y014121D02*
X026075Y014121D01*
X026075Y014116D02*
X026106Y014116D01*
X026106Y014111D02*
X026075Y014111D01*
X026075Y014106D02*
X026106Y014106D01*
X026106Y014101D02*
X026075Y014101D01*
X026075Y014096D02*
X026106Y014096D01*
X026106Y014090D02*
X026075Y014090D01*
X026075Y014085D02*
X026106Y014085D01*
X026106Y014080D02*
X026075Y014080D01*
X026075Y014075D02*
X026106Y014075D01*
X026106Y014070D02*
X026075Y014070D01*
X026075Y014064D02*
X026106Y014064D01*
X026106Y014059D02*
X026075Y014059D01*
X026075Y014054D02*
X026106Y014054D01*
X026106Y014049D02*
X026075Y014049D01*
X026075Y014044D02*
X026106Y014044D01*
X026106Y014038D02*
X026075Y014038D01*
X026075Y014033D02*
X026106Y014033D01*
X026106Y014028D02*
X026075Y014028D01*
X026075Y014023D02*
X026106Y014023D01*
X026119Y014360D02*
X026062Y014360D01*
X026053Y014366D02*
X026129Y014366D01*
X026137Y014371D02*
X026045Y014371D01*
X026039Y014376D02*
X026142Y014376D01*
X026147Y014381D02*
X026035Y014381D01*
X026032Y014386D02*
X026152Y014386D01*
X026153Y014392D02*
X026027Y014392D01*
X026025Y014397D02*
X026156Y014397D01*
X026159Y014402D02*
X026022Y014402D01*
X026020Y014407D02*
X026161Y014407D01*
X026161Y014412D02*
X026020Y014412D01*
X026020Y014417D02*
X026164Y014417D01*
X026165Y014423D02*
X026020Y014423D01*
X026020Y014428D02*
X026165Y014428D01*
X026165Y014433D02*
X026020Y014433D01*
X026020Y014449D02*
X026161Y014449D01*
X026283Y013348D02*
X026279Y013344D01*
X026272Y013344D01*
X026252Y013324D01*
X026252Y013320D01*
X026248Y013317D01*
X026244Y013309D01*
X026244Y013277D01*
X026248Y013269D01*
X026252Y013265D01*
X026252Y013261D01*
X026272Y013242D01*
X026279Y013242D01*
X026283Y013238D01*
X026319Y013238D01*
X026323Y013242D01*
X026327Y013242D01*
X026354Y013269D01*
X026354Y013281D01*
X026358Y013285D01*
X026358Y013297D01*
X026354Y013305D01*
X026354Y013317D01*
X026327Y013344D01*
X026323Y013344D01*
X026319Y013348D01*
X026283Y013348D01*
X026319Y013348D01*
X026328Y013342D02*
X026270Y013342D01*
X026265Y013337D02*
X026333Y013337D01*
X026339Y013332D02*
X026260Y013332D01*
X026254Y013327D02*
X026344Y013327D01*
X026349Y013322D02*
X026252Y013322D01*
X026248Y013317D02*
X026354Y013317D01*
X026354Y013311D02*
X026245Y013311D01*
X026244Y013306D02*
X026354Y013306D01*
X026356Y013301D02*
X026244Y013301D01*
X026244Y013296D02*
X026358Y013296D01*
X026358Y013291D02*
X026244Y013291D01*
X026244Y013285D02*
X026358Y013285D01*
X026354Y013280D02*
X026244Y013280D01*
X026245Y013275D02*
X026354Y013275D01*
X026354Y013270D02*
X026248Y013270D01*
X026252Y013265D02*
X026350Y013265D01*
X026344Y013259D02*
X026254Y013259D01*
X026259Y013254D02*
X026339Y013254D01*
X026334Y013249D02*
X026264Y013249D01*
X026269Y013244D02*
X026329Y013244D01*
X026320Y013239D02*
X026282Y013239D01*
X025941Y013285D02*
X025941Y013297D01*
X025937Y013305D01*
X025937Y013317D01*
X025925Y013328D01*
X025925Y013332D01*
X025842Y013332D01*
X025837Y013327D02*
X025926Y013327D01*
X025925Y013332D02*
X025921Y013336D01*
X025913Y013340D01*
X025909Y013344D01*
X025905Y013344D01*
X025901Y013348D01*
X025866Y013348D01*
X025862Y013344D01*
X025854Y013344D01*
X025835Y013324D01*
X025835Y013320D01*
X025831Y013317D01*
X025831Y013309D01*
X025827Y013305D01*
X025827Y013281D01*
X025831Y013277D01*
X025831Y013269D01*
X025835Y013265D01*
X025835Y013261D01*
X025854Y013242D01*
X025862Y013242D01*
X025866Y013238D01*
X025901Y013238D01*
X025905Y013242D01*
X025909Y013242D01*
X025913Y013246D01*
X025921Y013250D01*
X025925Y013254D01*
X025842Y013254D01*
X025847Y013249D02*
X025920Y013249D01*
X025925Y013254D02*
X025925Y013257D01*
X025937Y013269D01*
X025937Y013281D01*
X025941Y013285D01*
X025827Y013285D01*
X025828Y013280D02*
X025937Y013280D01*
X025937Y013275D02*
X025831Y013275D01*
X025831Y013270D02*
X025937Y013270D01*
X025932Y013265D02*
X025835Y013265D01*
X025837Y013259D02*
X025927Y013259D01*
X025911Y013244D02*
X025852Y013244D01*
X025865Y013239D02*
X025902Y013239D01*
X025941Y013291D02*
X025827Y013291D01*
X025827Y013296D02*
X025941Y013296D01*
X025939Y013301D02*
X025827Y013301D01*
X025828Y013306D02*
X025937Y013306D01*
X025937Y013311D02*
X025831Y013311D01*
X025831Y013317D02*
X025937Y013317D01*
X025932Y013322D02*
X025835Y013322D01*
X025847Y013337D02*
X025919Y013337D01*
X025911Y013342D02*
X025853Y013342D01*
X025866Y013348D02*
X025902Y013348D01*
X002608Y015035D02*
X002604Y015031D01*
X002604Y015019D01*
X002577Y014992D01*
X002573Y014992D01*
X002569Y014988D01*
X002533Y014988D01*
X002529Y014992D01*
X002522Y014992D01*
X002502Y015011D01*
X002502Y015015D01*
X002600Y015015D01*
X002604Y015020D02*
X002498Y015020D01*
X002498Y015019D02*
X002502Y015015D01*
X002504Y015009D02*
X002594Y015009D01*
X002589Y015004D02*
X002509Y015004D01*
X002514Y014999D02*
X002584Y014999D01*
X002579Y014994D02*
X002519Y014994D01*
X002532Y014989D02*
X002570Y014989D01*
X002604Y015025D02*
X002495Y015025D01*
X002494Y015027D02*
X002498Y015019D01*
X002494Y015027D02*
X002494Y015059D01*
X002498Y015067D01*
X002604Y015067D01*
X002577Y015094D01*
X002573Y015094D01*
X002569Y015098D01*
X002533Y015098D01*
X002529Y015094D01*
X002522Y015094D01*
X002502Y015074D01*
X002502Y015070D01*
X002498Y015067D01*
X002502Y015072D02*
X002599Y015072D01*
X002594Y015077D02*
X002504Y015077D01*
X002510Y015082D02*
X002589Y015082D01*
X002583Y015087D02*
X002515Y015087D01*
X002520Y015093D02*
X002578Y015093D01*
X002569Y015098D02*
X002533Y015098D01*
X002495Y015061D02*
X002604Y015061D01*
X002604Y015056D02*
X002494Y015056D01*
X002494Y015051D02*
X002606Y015051D01*
X002604Y015055D02*
X002604Y015067D01*
X002604Y015055D02*
X002608Y015047D01*
X002608Y015035D01*
X002494Y015035D01*
X002494Y015030D02*
X002604Y015030D01*
X002608Y015041D02*
X002494Y015041D01*
X002494Y015046D02*
X002608Y015046D01*
X002191Y015046D02*
X002077Y015046D01*
X002077Y015051D02*
X002189Y015051D01*
X002187Y015055D02*
X002187Y015067D01*
X002081Y015067D01*
X002081Y015059D01*
X002077Y015055D01*
X002077Y015031D01*
X002081Y015027D01*
X002081Y015019D01*
X002085Y015015D01*
X002182Y015015D01*
X002187Y015019D02*
X002187Y015031D01*
X002191Y015035D01*
X002191Y015047D01*
X002187Y015055D01*
X002187Y015056D02*
X002078Y015056D01*
X002081Y015061D02*
X002187Y015061D01*
X002187Y015067D02*
X002175Y015078D01*
X002175Y015082D01*
X002092Y015082D01*
X002087Y015077D02*
X002176Y015077D01*
X002175Y015082D02*
X002171Y015086D01*
X002163Y015090D01*
X002159Y015094D01*
X002155Y015094D01*
X002151Y015098D01*
X002116Y015098D01*
X002112Y015094D01*
X002104Y015094D01*
X002085Y015074D01*
X002085Y015070D01*
X002081Y015067D01*
X002085Y015072D02*
X002182Y015072D01*
X002169Y015087D02*
X002098Y015087D01*
X002103Y015093D02*
X002161Y015093D01*
X002152Y015098D02*
X002116Y015098D01*
X002077Y015041D02*
X002191Y015041D01*
X002191Y015035D02*
X002077Y015035D01*
X002077Y015030D02*
X002187Y015030D01*
X002187Y015025D02*
X002081Y015025D01*
X002081Y015020D02*
X002187Y015020D01*
X002187Y015019D02*
X002175Y015007D01*
X002175Y015004D01*
X002092Y015004D01*
X002097Y014999D02*
X002170Y014999D01*
X002171Y015000D02*
X002175Y015004D01*
X002171Y015000D02*
X002163Y014996D01*
X002159Y014992D01*
X002155Y014992D01*
X002151Y014988D01*
X002116Y014988D01*
X002112Y014992D01*
X002104Y014992D01*
X002085Y015011D01*
X002085Y015015D01*
X002086Y015009D02*
X002177Y015009D01*
X002162Y014994D02*
X002102Y014994D01*
X002115Y014989D02*
X002152Y014989D01*
X002325Y015771D02*
X002356Y015771D01*
X002356Y016193D01*
X002325Y016193D01*
X002325Y015771D01*
X002325Y015773D02*
X002356Y015773D01*
X002356Y015778D02*
X002325Y015778D01*
X002325Y015783D02*
X002356Y015783D01*
X002356Y015788D02*
X002325Y015788D01*
X002325Y015794D02*
X002356Y015794D01*
X002356Y015799D02*
X002325Y015799D01*
X002325Y015804D02*
X002356Y015804D01*
X002356Y015809D02*
X002325Y015809D01*
X002325Y015814D02*
X002356Y015814D01*
X002356Y015820D02*
X002325Y015820D01*
X002325Y015825D02*
X002356Y015825D01*
X002356Y015830D02*
X002325Y015830D01*
X002325Y015835D02*
X002356Y015835D01*
X002356Y015840D02*
X002325Y015840D01*
X002325Y015846D02*
X002356Y015846D01*
X002356Y015851D02*
X002325Y015851D01*
X002325Y015856D02*
X002356Y015856D01*
X002356Y015861D02*
X002325Y015861D01*
X002325Y015866D02*
X002356Y015866D01*
X002356Y015872D02*
X002325Y015872D01*
X002325Y015877D02*
X002356Y015877D01*
X002356Y015882D02*
X002325Y015882D01*
X002325Y015887D02*
X002356Y015887D01*
X002356Y015892D02*
X002325Y015892D01*
X002325Y015898D02*
X002356Y015898D01*
X002356Y015903D02*
X002325Y015903D01*
X002325Y015908D02*
X002356Y015908D01*
X002356Y015913D02*
X002325Y015913D01*
X002325Y015918D02*
X002356Y015918D01*
X002356Y015923D02*
X002325Y015923D01*
X002325Y015929D02*
X002356Y015929D01*
X002356Y015934D02*
X002325Y015934D01*
X002325Y015939D02*
X002356Y015939D01*
X002356Y015944D02*
X002325Y015944D01*
X002325Y015949D02*
X002356Y015949D01*
X002356Y015955D02*
X002325Y015955D01*
X002325Y015960D02*
X002356Y015960D01*
X002356Y015965D02*
X002325Y015965D01*
X002325Y015970D02*
X002356Y015970D01*
X002356Y015975D02*
X002325Y015975D01*
X002325Y015981D02*
X002356Y015981D01*
X002356Y015986D02*
X002325Y015986D01*
X002325Y015991D02*
X002356Y015991D01*
X002356Y015996D02*
X002325Y015996D01*
X002325Y016001D02*
X002356Y016001D01*
X002356Y016007D02*
X002325Y016007D01*
X002325Y016012D02*
X002356Y016012D01*
X002356Y016017D02*
X002325Y016017D01*
X002325Y016022D02*
X002356Y016022D01*
X002356Y016027D02*
X002325Y016027D01*
X002325Y016033D02*
X002356Y016033D01*
X002356Y016038D02*
X002325Y016038D01*
X002325Y016043D02*
X002356Y016043D01*
X002356Y016048D02*
X002325Y016048D01*
X002325Y016053D02*
X002356Y016053D01*
X002356Y016059D02*
X002325Y016059D01*
X002325Y016064D02*
X002356Y016064D01*
X002356Y016069D02*
X002325Y016069D01*
X002325Y016074D02*
X002356Y016074D01*
X002356Y016079D02*
X002325Y016079D01*
X002325Y016084D02*
X002356Y016084D01*
X002356Y016090D02*
X002325Y016090D01*
X002325Y016095D02*
X002356Y016095D01*
X002356Y016100D02*
X002325Y016100D01*
X002325Y016105D02*
X002356Y016105D01*
X002356Y016106D02*
X002364Y016110D01*
X002368Y016110D01*
X002384Y016118D01*
X002403Y016137D01*
X002403Y016141D01*
X002411Y016157D01*
X002411Y016165D01*
X002415Y016169D01*
X002415Y016185D01*
X002411Y016193D01*
X002411Y016200D01*
X002407Y016204D01*
X002403Y016212D01*
X002403Y016220D01*
X002396Y016224D01*
X002392Y016228D01*
X002388Y016236D01*
X002384Y016240D01*
X002376Y016244D01*
X002368Y016244D01*
X002364Y016248D01*
X002356Y016248D01*
X002348Y016252D01*
X002333Y016252D01*
X002325Y016248D01*
X002321Y016248D01*
X002313Y016244D01*
X002305Y016244D01*
X002301Y016240D01*
X002293Y016236D01*
X002289Y016228D01*
X002281Y016220D01*
X002273Y016204D01*
X002408Y016204D01*
X002405Y016209D02*
X002276Y016209D01*
X002273Y016204D02*
X002270Y016200D01*
X002270Y016157D01*
X002277Y016141D01*
X002281Y016137D01*
X002285Y016130D01*
X002293Y016122D01*
X002301Y016118D01*
X002305Y016114D01*
X002313Y016110D01*
X002321Y016110D01*
X002325Y016106D01*
X002356Y016106D01*
X002356Y016110D02*
X002325Y016110D01*
X002325Y016116D02*
X002356Y016116D01*
X002356Y016121D02*
X002325Y016121D01*
X002325Y016126D02*
X002356Y016126D01*
X002356Y016131D02*
X002325Y016131D01*
X002325Y016136D02*
X002356Y016136D01*
X002356Y016142D02*
X002325Y016142D01*
X002325Y016147D02*
X002356Y016147D01*
X002356Y016152D02*
X002325Y016152D01*
X002325Y016157D02*
X002356Y016157D01*
X002356Y016162D02*
X002325Y016162D01*
X002325Y016168D02*
X002356Y016168D01*
X002356Y016173D02*
X002325Y016173D01*
X002325Y016178D02*
X002356Y016178D01*
X002356Y016183D02*
X002325Y016183D01*
X002325Y016188D02*
X002356Y016188D01*
X002395Y016225D02*
X002286Y016225D01*
X002290Y016230D02*
X002391Y016230D01*
X002388Y016235D02*
X002293Y016235D01*
X002302Y016240D02*
X002383Y016240D01*
X002366Y016245D02*
X002316Y016245D01*
X002331Y016251D02*
X002350Y016251D01*
X002403Y016220D02*
X002281Y016220D01*
X002278Y016214D02*
X002403Y016214D01*
X002411Y016199D02*
X002270Y016199D01*
X002270Y016194D02*
X002411Y016194D01*
X002413Y016188D02*
X002270Y016188D01*
X002270Y016183D02*
X002415Y016183D01*
X002415Y016178D02*
X002270Y016178D01*
X002270Y016173D02*
X002415Y016173D01*
X002414Y016168D02*
X002270Y016168D01*
X002270Y016162D02*
X002411Y016162D01*
X002411Y016157D02*
X002270Y016157D01*
X002272Y016152D02*
X002409Y016152D01*
X002406Y016147D02*
X002275Y016147D01*
X002277Y016142D02*
X002404Y016142D01*
X002402Y016136D02*
X002282Y016136D01*
X002284Y016131D02*
X002397Y016131D01*
X002392Y016126D02*
X002289Y016126D01*
X002295Y016121D02*
X002387Y016121D01*
X002380Y016116D02*
X002303Y016116D01*
X002312Y016110D02*
X002369Y016110D01*
D14*
X002344Y015775D02*
X002277Y015771D01*
X002214Y015763D01*
X002155Y015752D01*
X002096Y015732D01*
X002041Y015712D01*
X001986Y015685D01*
X001939Y015657D01*
X001892Y015622D01*
X001852Y015586D01*
X001813Y015547D01*
X001781Y015504D01*
X001754Y015456D01*
X001734Y015409D01*
X001718Y015358D01*
X001707Y015307D01*
X001707Y015200D01*
X001714Y015149D01*
X001730Y015102D01*
X001750Y015051D01*
X001773Y015007D01*
X001801Y014964D01*
X001836Y014925D01*
X001872Y014889D01*
X001915Y014854D01*
X001962Y014822D01*
X002010Y014799D01*
X002065Y014775D01*
X002120Y014759D01*
X002179Y014748D01*
X002242Y014740D01*
X002305Y014736D01*
X002372Y014740D01*
X002435Y014748D01*
X002498Y014759D01*
X002561Y014775D01*
X002620Y014799D01*
X002675Y014822D01*
X002726Y014854D01*
X002777Y014889D01*
X002821Y014925D01*
X002860Y014964D01*
X002896Y015007D01*
X002927Y015055D01*
X002951Y015102D01*
X002966Y015149D01*
X002978Y015200D01*
X002982Y015256D01*
X002978Y015307D01*
X002970Y015358D01*
X002955Y015409D01*
X002907Y015504D01*
X002872Y015547D01*
X002836Y015586D01*
X002797Y015622D01*
X002750Y015657D01*
X002703Y015685D01*
X002648Y015712D01*
X002592Y015732D01*
X002533Y015752D01*
X002474Y015763D01*
X002407Y015771D01*
X002344Y015775D01*
X002392Y014740D02*
X002266Y014736D01*
X002266Y014645D01*
X002242Y014637D01*
X002218Y014626D01*
X002199Y014610D01*
X002183Y014590D01*
X002167Y014574D01*
X002155Y014555D01*
X002144Y014531D01*
X002136Y014511D01*
X002132Y014492D01*
X002124Y014468D01*
X002120Y014448D01*
X002120Y014433D01*
X002116Y014413D01*
X002116Y014385D01*
X002120Y014378D01*
X002120Y014358D01*
X002124Y014338D01*
X002132Y014319D01*
X002136Y014295D01*
X002151Y014248D01*
X002159Y014220D01*
X002171Y014196D01*
X002179Y014173D01*
X002195Y014133D01*
X002199Y014114D01*
X002214Y014082D01*
X002214Y013925D01*
X002210Y013925D01*
X002207Y013929D01*
X002179Y013929D01*
X002171Y013925D01*
X002163Y013925D01*
X002155Y013917D01*
X002148Y013901D01*
X002148Y013870D01*
X002151Y013866D01*
X002151Y013862D01*
X002155Y013862D01*
X002159Y013858D01*
X002163Y013858D01*
X002167Y013854D01*
X002179Y013854D01*
X002187Y013850D01*
X002301Y013850D01*
X002301Y013862D01*
X002297Y013878D01*
X002297Y013984D01*
X002301Y014011D01*
X002301Y014035D01*
X002305Y014059D01*
X002309Y014078D01*
X002317Y014094D01*
X002333Y014118D01*
X002352Y014118D01*
X002360Y014114D01*
X002364Y014106D01*
X002372Y014082D01*
X002372Y014067D01*
X002376Y014051D01*
X002376Y013846D01*
X002447Y013846D01*
X002455Y013842D01*
X002498Y013842D01*
X002502Y013846D01*
X002510Y013846D01*
X002514Y013850D01*
X002522Y013854D01*
X002522Y013862D01*
X002525Y013866D01*
X002529Y013874D01*
X002529Y013893D01*
X002518Y013917D01*
X002514Y013921D01*
X002506Y013921D01*
X002502Y013925D01*
X002494Y013925D01*
X002486Y013929D01*
X002470Y013929D01*
X002466Y013925D01*
X002459Y013925D01*
X002459Y014078D01*
X002462Y014078D01*
X002462Y014086D01*
X002466Y014094D01*
X002470Y014106D01*
X002486Y014137D01*
X002490Y014157D01*
X002514Y014228D01*
X002522Y014252D01*
X002525Y014279D01*
X002533Y014307D01*
X002541Y014362D01*
X002541Y014425D01*
X002537Y014460D01*
X002522Y014515D01*
X002498Y014563D01*
X002482Y014578D01*
X002470Y014594D01*
X002455Y014610D01*
X002443Y014618D01*
X002427Y014630D01*
X002415Y014633D01*
X002407Y014641D01*
X002399Y014645D01*
X002392Y014645D01*
X002392Y014740D01*
X002439Y014622D02*
X002447Y014618D01*
X002451Y014618D01*
X002459Y014614D01*
X002470Y014614D01*
X002478Y014610D01*
X002490Y014610D01*
X002506Y014602D01*
X002514Y014602D01*
X002525Y014590D01*
X002537Y014582D01*
X002553Y014567D01*
X002569Y014543D01*
X002581Y014515D01*
X002588Y014492D01*
X002592Y014464D01*
X002592Y014433D01*
X002588Y014405D01*
X002573Y014350D01*
X002557Y014303D01*
X002545Y014283D01*
X002537Y014263D01*
X002525Y014248D01*
X002522Y014236D01*
X002514Y014228D01*
X002155Y014236D02*
X002140Y014252D01*
X002132Y014267D01*
X002108Y014299D01*
X002096Y014322D01*
X002088Y014342D01*
X002077Y014370D01*
X002069Y014393D01*
X002065Y014421D01*
X002065Y014476D01*
X002073Y014504D01*
X002085Y014531D01*
X002108Y014567D01*
X002124Y014582D01*
X002140Y014590D01*
X002144Y014594D01*
X002151Y014598D01*
X002155Y014602D01*
X002163Y014602D01*
X002167Y014606D01*
X002175Y014606D01*
X002179Y014610D01*
X002195Y014610D01*
X002199Y014614D01*
X002207Y014614D01*
X025457Y013557D02*
X025468Y013608D01*
X025484Y013659D01*
X025504Y013706D01*
X025531Y013754D01*
X025563Y013797D01*
X025602Y013836D01*
X025642Y013872D01*
X025689Y013907D01*
X025736Y013935D01*
X025791Y013962D01*
X025846Y013982D01*
X025905Y014002D01*
X025964Y014013D01*
X026027Y014021D01*
X026094Y014025D01*
X026157Y014021D01*
X026224Y014013D01*
X026283Y014002D01*
X026342Y013982D01*
X026398Y013962D01*
X026453Y013935D01*
X026500Y013907D01*
X026547Y013872D01*
X026586Y013836D01*
X026622Y013797D01*
X026657Y013754D01*
X026705Y013659D01*
X026720Y013608D01*
X026728Y013557D01*
X026732Y013506D01*
X026728Y013450D01*
X026716Y013399D01*
X026701Y013352D01*
X026677Y013305D01*
X026646Y013257D01*
X026610Y013214D01*
X026571Y013175D01*
X026527Y013139D01*
X026476Y013104D01*
X026425Y013072D01*
X026370Y013049D01*
X026311Y013025D01*
X026248Y013009D01*
X026185Y012998D01*
X026122Y012990D01*
X026055Y012986D01*
X025992Y012990D01*
X025929Y012998D01*
X025870Y013009D01*
X025815Y013025D01*
X025760Y013049D01*
X025712Y013072D01*
X025665Y013104D01*
X025622Y013139D01*
X025586Y013175D01*
X025551Y013214D01*
X025523Y013257D01*
X025500Y013301D01*
X025480Y013352D01*
X025464Y013399D01*
X025457Y013450D01*
X025457Y013557D01*
X026016Y012986D02*
X026016Y012895D01*
X025992Y012887D01*
X025968Y012876D01*
X025949Y012860D01*
X025933Y012840D01*
X025917Y012824D01*
X025905Y012805D01*
X025894Y012781D01*
X025886Y012761D01*
X025882Y012742D01*
X025874Y012718D01*
X025870Y012698D01*
X025870Y012683D01*
X025866Y012663D01*
X025866Y012635D01*
X025870Y012628D01*
X025870Y012608D01*
X025874Y012588D01*
X025882Y012569D01*
X025886Y012545D01*
X025901Y012498D01*
X025909Y012470D01*
X025921Y012446D01*
X025929Y012423D01*
X025945Y012383D01*
X025949Y012364D01*
X025964Y012332D01*
X025964Y012175D01*
X025960Y012175D01*
X025957Y012179D01*
X025929Y012179D01*
X025921Y012175D01*
X025913Y012175D01*
X025905Y012167D01*
X025898Y012151D01*
X025898Y012120D01*
X025901Y012116D01*
X025901Y012112D01*
X025905Y012112D01*
X025909Y012108D01*
X025913Y012108D01*
X025917Y012104D01*
X025929Y012104D01*
X025937Y012100D01*
X026051Y012100D01*
X026051Y012112D01*
X026047Y012128D01*
X026047Y012234D01*
X026051Y012261D01*
X026051Y012285D01*
X026055Y012309D01*
X026059Y012328D01*
X026067Y012344D01*
X026083Y012368D01*
X026102Y012368D01*
X026110Y012364D01*
X026114Y012356D01*
X026122Y012332D01*
X026122Y012317D01*
X026126Y012301D01*
X026126Y012096D01*
X026197Y012096D01*
X026205Y012092D01*
X026248Y012092D01*
X026252Y012096D01*
X026260Y012096D01*
X026264Y012100D01*
X026272Y012104D01*
X026272Y012112D01*
X026275Y012116D01*
X026279Y012124D01*
X026279Y012143D01*
X026268Y012167D01*
X026264Y012171D01*
X026256Y012171D01*
X026252Y012175D01*
X026244Y012175D01*
X026236Y012179D01*
X026220Y012179D01*
X026216Y012175D01*
X026209Y012175D01*
X026209Y012328D01*
X026212Y012328D01*
X026212Y012336D01*
X026216Y012344D01*
X026220Y012356D01*
X026236Y012387D01*
X026240Y012407D01*
X026264Y012478D01*
X026272Y012502D01*
X026275Y012529D01*
X026283Y012557D01*
X026291Y012612D01*
X026291Y012675D01*
X026287Y012710D01*
X026272Y012765D01*
X026248Y012813D01*
X026232Y012828D01*
X026220Y012844D01*
X026205Y012860D01*
X026193Y012868D01*
X026177Y012880D01*
X026165Y012883D01*
X026157Y012891D01*
X026149Y012895D01*
X026142Y012895D01*
X026142Y012990D01*
X026016Y012986D01*
X025957Y012864D02*
X025949Y012864D01*
X025945Y012860D01*
X025929Y012860D01*
X025925Y012856D01*
X025917Y012856D01*
X025913Y012852D01*
X025905Y012852D01*
X025901Y012848D01*
X025894Y012844D01*
X025890Y012840D01*
X025874Y012832D01*
X025858Y012817D01*
X025835Y012781D01*
X025823Y012754D01*
X025815Y012726D01*
X025815Y012671D01*
X025819Y012643D01*
X025827Y012620D01*
X025838Y012592D01*
X025846Y012572D01*
X025858Y012549D01*
X025882Y012517D01*
X025890Y012502D01*
X025905Y012486D01*
X026264Y012478D02*
X026272Y012486D01*
X026275Y012498D01*
X026287Y012513D01*
X026295Y012533D01*
X026307Y012553D01*
X026323Y012600D01*
X026338Y012655D01*
X026342Y012683D01*
X026342Y012714D01*
X026338Y012742D01*
X026331Y012765D01*
X026319Y012793D01*
X026303Y012817D01*
X026287Y012832D01*
X026275Y012840D01*
X026264Y012852D01*
X026256Y012852D01*
X026240Y012860D01*
X026228Y012860D01*
X026220Y012864D01*
X026209Y012864D01*
X026201Y012868D01*
X026197Y012868D01*
X026189Y012872D01*
D15*
X026142Y012990D02*
X026216Y013002D01*
X026283Y013017D01*
X026342Y013037D01*
X026394Y013061D01*
X026441Y013088D01*
X026512Y013151D01*
X026559Y013230D01*
X026575Y013269D01*
X026586Y013313D01*
X026594Y013356D01*
X026602Y013443D01*
X026602Y013486D01*
X026598Y013517D01*
X026594Y013557D01*
X026586Y013592D01*
X026575Y013635D01*
X026559Y013675D01*
X026543Y013710D01*
X026520Y013746D01*
X026492Y013777D01*
X026457Y013805D01*
X026421Y013820D01*
X026378Y013832D01*
X026327Y013832D01*
X026272Y013824D01*
X026212Y013801D01*
X026146Y013765D01*
X026071Y013714D01*
X026047Y013726D01*
X026023Y013742D01*
X025992Y013757D01*
X025957Y013773D01*
X025917Y013785D01*
X025874Y013797D01*
X025827Y013801D01*
X025783Y013801D01*
X025740Y013789D01*
X025697Y013769D01*
X025661Y013734D01*
X025630Y013683D01*
X025606Y013620D01*
X025590Y013537D01*
X025586Y013431D01*
X025586Y013372D01*
X025590Y013340D01*
X025598Y013305D01*
X025622Y013226D01*
X025638Y013191D01*
X025661Y013155D01*
X025689Y013120D01*
X025720Y013084D01*
X025760Y013057D01*
X025803Y013033D01*
X025854Y013009D01*
X025913Y012998D01*
X025980Y012986D01*
X026055Y012986D01*
X026142Y012990D01*
X002844Y015106D02*
X002852Y015193D01*
X002852Y015236D01*
X002848Y015267D01*
X002844Y015307D01*
X002836Y015342D01*
X002825Y015385D01*
X002809Y015425D01*
X002793Y015460D01*
X002770Y015496D01*
X002742Y015527D01*
X002707Y015555D01*
X002671Y015570D01*
X002628Y015582D01*
X002577Y015582D01*
X002522Y015574D01*
X002462Y015551D01*
X002396Y015515D01*
X002321Y015464D01*
X002297Y015476D01*
X002273Y015492D01*
X002242Y015507D01*
X002207Y015523D01*
X002167Y015535D01*
X002124Y015547D01*
X002077Y015551D01*
X002033Y015551D01*
X001990Y015539D01*
X001947Y015519D01*
X001911Y015484D01*
X001880Y015433D01*
X001856Y015370D01*
X001840Y015287D01*
X001836Y015181D01*
X001836Y015122D01*
X001840Y015090D01*
X001848Y015055D01*
X001872Y014976D01*
X001888Y014941D01*
X001911Y014905D01*
X001939Y014870D01*
X001970Y014834D01*
X002010Y014807D01*
X002053Y014783D01*
X002104Y014759D01*
X002163Y014748D01*
X002230Y014736D01*
X002305Y014736D01*
X002392Y014740D01*
X002466Y014752D01*
X002533Y014767D01*
X002592Y014787D01*
X002644Y014811D01*
X002691Y014838D01*
X002762Y014901D01*
X002809Y014980D01*
X002825Y015019D01*
X002836Y015063D01*
X002844Y015106D01*
M02*
