G75*
%MOIN*%
%OFA0B0*%
%FSLAX24Y24*%
%IPPOS*%
%LPD*%
%AMOC8*
5,1,8,0,0,1.08239X$1,22.5*
%
%ADD10C,0.0060*%
%ADD11C,0.0740*%
%ADD12R,0.0740X0.0740*%
%ADD13C,0.0660*%
%ADD14C,0.0709*%
%ADD15C,0.0160*%
%ADD16C,0.0100*%
D10*
X022463Y005693D02*
X022577Y005920D01*
X022690Y005693D01*
X022832Y005693D02*
X022945Y005580D01*
X022945Y005920D01*
X022832Y005920D02*
X023059Y005920D01*
X023200Y005920D02*
X023427Y005920D01*
X023313Y005920D02*
X023313Y005580D01*
X023200Y005693D01*
X017140Y009930D02*
X017026Y010157D01*
X016885Y010157D02*
X016772Y010270D01*
X016772Y009930D01*
X016885Y009930D02*
X016658Y009930D01*
X016517Y009930D02*
X016290Y009930D01*
X016403Y009930D02*
X016403Y010270D01*
X016517Y010157D01*
X017140Y009930D02*
X017253Y010157D01*
X010053Y010157D02*
X009940Y009930D01*
X009826Y010157D01*
X009685Y010157D02*
X009572Y010270D01*
X009572Y009930D01*
X009685Y009930D02*
X009458Y009930D01*
X009317Y009930D02*
X009090Y009930D01*
X009203Y009930D02*
X009203Y010270D01*
X009317Y010157D01*
X002853Y010157D02*
X002740Y009930D01*
X002626Y010157D01*
X002485Y010157D02*
X002372Y010270D01*
X002372Y009930D01*
X002485Y009930D02*
X002258Y009930D01*
X002117Y009930D02*
X001890Y009930D01*
X002003Y009930D02*
X002003Y010270D01*
X002117Y010157D01*
X002108Y016680D02*
X002335Y016680D01*
X002222Y016680D02*
X002222Y017020D01*
X002335Y016907D01*
X002476Y016907D02*
X002590Y016680D01*
X002703Y016907D01*
X001967Y016907D02*
X001853Y017020D01*
X001853Y016680D01*
X001740Y016680D02*
X001967Y016680D01*
X009040Y016680D02*
X009267Y016680D01*
X009153Y016680D02*
X009153Y017020D01*
X009267Y016907D01*
X009408Y016680D02*
X009635Y016680D01*
X009522Y016680D02*
X009522Y017020D01*
X009635Y016907D01*
X009776Y016907D02*
X009890Y016680D01*
X010003Y016907D01*
X016240Y016680D02*
X016467Y016680D01*
X016353Y016680D02*
X016353Y017020D01*
X016467Y016907D01*
X016608Y016680D02*
X016835Y016680D01*
X016722Y016680D02*
X016722Y017020D01*
X016835Y016907D01*
X016976Y016907D02*
X017090Y016680D01*
X017203Y016907D01*
X024140Y016630D02*
X024367Y016630D01*
X024253Y016630D02*
X024253Y016970D01*
X024367Y016857D01*
X024508Y016630D02*
X024735Y016630D01*
X024622Y016630D02*
X024622Y016970D01*
X024735Y016857D01*
X024876Y016857D02*
X024990Y016630D01*
X025103Y016857D01*
D11*
X026583Y016200D03*
X027583Y016200D03*
X028583Y016200D03*
X027583Y014200D03*
X024583Y014200D03*
X022583Y012700D03*
X019733Y014200D03*
X016733Y014200D03*
X017733Y012700D03*
X018733Y012700D03*
X012533Y014200D03*
X009533Y014200D03*
X006333Y014200D03*
X005113Y014090D03*
X002553Y014090D03*
X002553Y012310D03*
X005113Y012310D03*
X006333Y011200D03*
X006333Y009500D03*
X005333Y009500D03*
X004333Y009500D03*
X001333Y009500D03*
X008533Y009500D03*
X011533Y009500D03*
X012533Y009500D03*
X013533Y009500D03*
X015733Y009500D03*
X018733Y009500D03*
X019733Y009500D03*
X020733Y009500D03*
X022933Y009750D03*
X022933Y008750D03*
X022933Y007750D03*
X019733Y007500D03*
X016733Y007500D03*
X017733Y006000D03*
X018733Y006000D03*
X022933Y004750D03*
X012533Y007500D03*
X009533Y007500D03*
X004333Y006500D03*
X003333Y006500D03*
X003833Y005750D03*
X010533Y012700D03*
X011533Y012700D03*
X011533Y016200D03*
X012533Y016200D03*
X013533Y016200D03*
X015733Y016200D03*
X018733Y016200D03*
X019733Y016200D03*
X020733Y016200D03*
X023583Y016200D03*
X029583Y012700D03*
X029433Y010000D03*
X026433Y010000D03*
X008533Y016200D03*
X006333Y016200D03*
X005333Y016200D03*
X004333Y016200D03*
X001333Y016200D03*
D12*
X003333Y016200D03*
X010533Y016200D03*
X017733Y016200D03*
X025583Y016200D03*
X017733Y009500D03*
X022933Y006750D03*
X010533Y009500D03*
X003333Y009500D03*
D13*
X010246Y006000D03*
X011821Y006000D03*
D14*
X026514Y005681D03*
X027833Y005130D03*
X029152Y005681D03*
X029152Y008319D03*
X027833Y008870D03*
X026514Y008319D03*
D15*
X006813Y004520D02*
X000853Y004520D01*
X000853Y009174D01*
X001010Y009017D01*
X001220Y008930D01*
X001447Y008930D01*
X001656Y009017D01*
X001817Y009177D01*
X001903Y009387D01*
X001903Y009613D01*
X001867Y009700D01*
X002580Y009700D01*
X002611Y009731D01*
X002652Y009717D01*
X002722Y009682D01*
X002740Y009688D01*
X002758Y009682D01*
X002763Y009685D01*
X002763Y009047D01*
X002880Y008930D01*
X003786Y008930D01*
X003903Y009047D01*
X003903Y009124D01*
X004010Y009017D01*
X004220Y008930D01*
X004447Y008930D01*
X004656Y009017D01*
X004817Y009177D01*
X004833Y009218D01*
X004850Y009177D01*
X005010Y009017D01*
X005220Y008930D01*
X005447Y008930D01*
X005656Y009017D01*
X005817Y009177D01*
X005833Y009218D01*
X005850Y009177D01*
X006010Y009017D01*
X006220Y008930D01*
X006447Y008930D01*
X006656Y009017D01*
X006813Y009174D01*
X006813Y004520D01*
X006813Y004634D02*
X000853Y004634D01*
X000853Y004793D02*
X006813Y004793D01*
X006813Y004951D02*
X000853Y004951D01*
X000853Y005110D02*
X006813Y005110D01*
X006813Y005268D02*
X004157Y005268D01*
X004156Y005267D02*
X004317Y005427D01*
X004403Y005637D01*
X004403Y005863D01*
X004376Y005930D01*
X004447Y005930D01*
X004656Y006017D01*
X004817Y006177D01*
X004903Y006387D01*
X004903Y006613D01*
X004817Y006823D01*
X004656Y006983D01*
X004447Y007070D01*
X004220Y007070D01*
X004010Y006983D01*
X003850Y006823D01*
X003833Y006782D01*
X003817Y006823D01*
X003656Y006983D01*
X003447Y007070D01*
X003220Y007070D01*
X003010Y006983D01*
X002850Y006823D01*
X002763Y006613D01*
X002763Y006387D01*
X002850Y006177D01*
X003010Y006017D01*
X003220Y005930D01*
X003291Y005930D01*
X003263Y005863D01*
X003263Y005637D01*
X003350Y005427D01*
X003510Y005267D01*
X003720Y005180D01*
X003947Y005180D01*
X004156Y005267D01*
X004316Y005427D02*
X006813Y005427D01*
X006813Y005585D02*
X004382Y005585D01*
X004403Y005744D02*
X006813Y005744D01*
X006813Y005902D02*
X004387Y005902D01*
X004700Y006061D02*
X006813Y006061D01*
X006813Y006219D02*
X004834Y006219D01*
X004900Y006378D02*
X006813Y006378D01*
X006813Y006536D02*
X004903Y006536D01*
X004870Y006695D02*
X006813Y006695D01*
X006813Y006853D02*
X004786Y006853D01*
X004588Y007012D02*
X006813Y007012D01*
X006813Y007170D02*
X000853Y007170D01*
X000853Y007012D02*
X003079Y007012D01*
X002880Y006853D02*
X000853Y006853D01*
X000853Y006695D02*
X002797Y006695D01*
X002763Y006536D02*
X000853Y006536D01*
X000853Y006378D02*
X002767Y006378D01*
X002833Y006219D02*
X000853Y006219D01*
X000853Y006061D02*
X002967Y006061D01*
X003279Y005902D02*
X000853Y005902D01*
X000853Y005744D02*
X003263Y005744D01*
X003285Y005585D02*
X000853Y005585D01*
X000853Y005427D02*
X003351Y005427D01*
X003509Y005268D02*
X000853Y005268D01*
X003786Y006853D02*
X003880Y006853D01*
X004079Y007012D02*
X003588Y007012D01*
X000853Y007329D02*
X006813Y007329D01*
X006813Y007487D02*
X000853Y007487D01*
X000853Y007646D02*
X006813Y007646D01*
X006813Y007804D02*
X000853Y007804D01*
X000853Y007963D02*
X006813Y007963D01*
X006813Y008121D02*
X000853Y008121D01*
X000853Y008280D02*
X006813Y008280D01*
X006813Y008438D02*
X000853Y008438D01*
X000853Y008597D02*
X006813Y008597D01*
X006813Y008755D02*
X000853Y008755D01*
X000853Y008914D02*
X006813Y008914D01*
X006813Y009072D02*
X006711Y009072D01*
X005955Y009072D02*
X005711Y009072D01*
X004955Y009072D02*
X004711Y009072D01*
X003955Y009072D02*
X003903Y009072D01*
X002763Y009072D02*
X001711Y009072D01*
X001839Y009231D02*
X002763Y009231D01*
X002763Y009389D02*
X001903Y009389D01*
X001903Y009548D02*
X002763Y009548D01*
X002674Y009706D02*
X002586Y009706D01*
X001660Y009980D02*
X001659Y009980D01*
X001660Y009980D01*
X001660Y009980D01*
X001007Y009980D02*
X000853Y009826D01*
X000853Y009980D01*
X001007Y009980D01*
X000892Y009865D02*
X000853Y009865D01*
X000853Y009072D02*
X000955Y009072D01*
X003903Y009876D02*
X003903Y009953D01*
X003876Y009980D01*
X004007Y009980D01*
X003903Y009876D01*
X004659Y009980D02*
X005007Y009980D01*
X004850Y009823D01*
X004833Y009782D01*
X004817Y009823D01*
X004659Y009980D01*
X004775Y009865D02*
X004892Y009865D01*
X005659Y009980D02*
X005817Y009823D01*
X005833Y009782D01*
X005850Y009823D01*
X006007Y009980D01*
X005659Y009980D01*
X005775Y009865D02*
X005892Y009865D01*
X006659Y009980D02*
X006813Y009826D01*
X006813Y009980D01*
X006659Y009980D01*
X006775Y009865D02*
X006813Y009865D01*
X008053Y009865D02*
X008092Y009865D01*
X008053Y009826D02*
X008053Y009980D01*
X008207Y009980D01*
X008053Y009826D01*
X008859Y009980D02*
X008860Y009980D01*
X008860Y009980D01*
X008859Y009980D01*
X009067Y009700D02*
X009780Y009700D01*
X009811Y009731D01*
X009852Y009717D01*
X009922Y009682D01*
X009940Y009688D01*
X009958Y009682D01*
X009963Y009685D01*
X009963Y009047D01*
X010080Y008930D01*
X010986Y008930D01*
X011103Y009047D01*
X011103Y009124D01*
X011210Y009017D01*
X011420Y008930D01*
X011647Y008930D01*
X011856Y009017D01*
X012017Y009177D01*
X012033Y009218D01*
X012050Y009177D01*
X012210Y009017D01*
X012420Y008930D01*
X012647Y008930D01*
X012856Y009017D01*
X013017Y009177D01*
X013033Y009218D01*
X013050Y009177D01*
X013210Y009017D01*
X013420Y008930D01*
X013647Y008930D01*
X013856Y009017D01*
X014013Y009174D01*
X014013Y004520D01*
X008053Y004520D01*
X008053Y009174D01*
X008210Y009017D01*
X008420Y008930D01*
X008647Y008930D01*
X008856Y009017D01*
X009017Y009177D01*
X009103Y009387D01*
X009103Y009613D01*
X009067Y009700D01*
X009103Y009548D02*
X009963Y009548D01*
X009963Y009389D02*
X009103Y009389D01*
X009039Y009231D02*
X009963Y009231D01*
X009963Y009072D02*
X008911Y009072D01*
X008155Y009072D02*
X008053Y009072D01*
X008053Y008914D02*
X014013Y008914D01*
X014013Y009072D02*
X013911Y009072D01*
X014013Y008755D02*
X008053Y008755D01*
X008053Y008597D02*
X014013Y008597D01*
X014013Y008438D02*
X008053Y008438D01*
X008053Y008280D02*
X014013Y008280D01*
X014013Y008121D02*
X008053Y008121D01*
X008053Y007963D02*
X009190Y007963D01*
X009210Y007983D02*
X009050Y007823D01*
X008963Y007613D01*
X008963Y007387D01*
X009050Y007177D01*
X009210Y007017D01*
X009420Y006930D01*
X009647Y006930D01*
X009856Y007017D01*
X010017Y007177D01*
X010103Y007387D01*
X010103Y007613D01*
X010017Y007823D01*
X009856Y007983D01*
X009647Y008070D01*
X009420Y008070D01*
X009210Y007983D01*
X009042Y007804D02*
X008053Y007804D01*
X008053Y007646D02*
X008977Y007646D01*
X008963Y007487D02*
X008053Y007487D01*
X008053Y007329D02*
X008987Y007329D01*
X009057Y007170D02*
X008053Y007170D01*
X008053Y007012D02*
X009223Y007012D01*
X009843Y007012D02*
X012223Y007012D01*
X012210Y007017D02*
X012420Y006930D01*
X012647Y006930D01*
X012856Y007017D01*
X013017Y007177D01*
X013103Y007387D01*
X013103Y007613D01*
X013017Y007823D01*
X012856Y007983D01*
X012647Y008070D01*
X012420Y008070D01*
X012210Y007983D01*
X012050Y007823D01*
X011963Y007613D01*
X011963Y007387D01*
X012050Y007177D01*
X012210Y007017D01*
X012057Y007170D02*
X010009Y007170D01*
X010079Y007329D02*
X011987Y007329D01*
X011963Y007487D02*
X010103Y007487D01*
X010090Y007646D02*
X011977Y007646D01*
X012042Y007804D02*
X010024Y007804D01*
X009877Y007963D02*
X012190Y007963D01*
X012877Y007963D02*
X014013Y007963D01*
X014013Y007804D02*
X013024Y007804D01*
X013090Y007646D02*
X014013Y007646D01*
X014013Y007487D02*
X013103Y007487D01*
X013079Y007329D02*
X014013Y007329D01*
X014013Y007170D02*
X013009Y007170D01*
X012843Y007012D02*
X014013Y007012D01*
X014013Y006853D02*
X008053Y006853D01*
X008053Y006695D02*
X014013Y006695D01*
X014013Y006536D02*
X008053Y006536D01*
X008053Y006378D02*
X009874Y006378D01*
X009946Y006449D02*
X009797Y006300D01*
X009716Y006105D01*
X009716Y005895D01*
X009797Y005700D01*
X009946Y005551D01*
X010141Y005470D01*
X010351Y005470D01*
X010546Y005551D01*
X010695Y005700D01*
X010776Y005895D01*
X010776Y006105D01*
X010695Y006300D01*
X010546Y006449D01*
X010351Y006530D01*
X010141Y006530D01*
X009946Y006449D01*
X009763Y006219D02*
X008053Y006219D01*
X008053Y006061D02*
X009716Y006061D01*
X009716Y005902D02*
X008053Y005902D01*
X008053Y005744D02*
X009779Y005744D01*
X009911Y005585D02*
X008053Y005585D01*
X008053Y005427D02*
X014013Y005427D01*
X014013Y005585D02*
X012155Y005585D01*
X012121Y005551D02*
X012270Y005700D01*
X012351Y005895D01*
X012351Y006105D01*
X012270Y006300D01*
X012121Y006449D01*
X011926Y006530D01*
X011715Y006530D01*
X011521Y006449D01*
X011371Y006300D01*
X011291Y006105D01*
X011291Y005895D01*
X011371Y005700D01*
X011521Y005551D01*
X011715Y005470D01*
X011926Y005470D01*
X012121Y005551D01*
X012288Y005744D02*
X014013Y005744D01*
X014013Y005902D02*
X012351Y005902D01*
X012351Y006061D02*
X014013Y006061D01*
X014013Y006219D02*
X012304Y006219D01*
X012193Y006378D02*
X014013Y006378D01*
X015253Y006378D02*
X017305Y006378D01*
X017250Y006323D02*
X017410Y006483D01*
X017620Y006570D01*
X017847Y006570D01*
X018056Y006483D01*
X018217Y006323D01*
X018233Y006282D01*
X018250Y006323D01*
X018410Y006483D01*
X018620Y006570D01*
X018847Y006570D01*
X019056Y006483D01*
X019217Y006323D01*
X019303Y006113D01*
X019303Y005887D01*
X019217Y005677D01*
X019056Y005517D01*
X018847Y005430D01*
X018620Y005430D01*
X018410Y005517D01*
X018250Y005677D01*
X018233Y005718D01*
X018217Y005677D01*
X018056Y005517D01*
X017847Y005430D01*
X017620Y005430D01*
X017410Y005517D01*
X017250Y005677D01*
X017163Y005887D01*
X017163Y006113D01*
X017250Y006323D01*
X017207Y006219D02*
X015253Y006219D01*
X015253Y006061D02*
X017163Y006061D01*
X017163Y005902D02*
X015253Y005902D01*
X015253Y005744D02*
X017223Y005744D01*
X017342Y005585D02*
X015253Y005585D01*
X015253Y005427D02*
X021213Y005427D01*
X021213Y005585D02*
X019124Y005585D01*
X019244Y005744D02*
X021213Y005744D01*
X021213Y005902D02*
X019303Y005902D01*
X019303Y006061D02*
X021213Y006061D01*
X021213Y006219D02*
X019260Y006219D01*
X019162Y006378D02*
X021213Y006378D01*
X021213Y006536D02*
X018929Y006536D01*
X018538Y006536D02*
X017929Y006536D01*
X018162Y006378D02*
X018305Y006378D01*
X017538Y006536D02*
X015253Y006536D01*
X015253Y006695D02*
X021213Y006695D01*
X021213Y006853D02*
X015253Y006853D01*
X015253Y007012D02*
X016423Y007012D01*
X016410Y007017D02*
X016620Y006930D01*
X016847Y006930D01*
X017056Y007017D01*
X017217Y007177D01*
X017303Y007387D01*
X017303Y007613D01*
X017217Y007823D01*
X017056Y007983D01*
X016847Y008070D01*
X016620Y008070D01*
X016410Y007983D01*
X016250Y007823D01*
X016163Y007613D01*
X016163Y007387D01*
X016250Y007177D01*
X016410Y007017D01*
X016257Y007170D02*
X015253Y007170D01*
X015253Y007329D02*
X016187Y007329D01*
X016163Y007487D02*
X015253Y007487D01*
X015253Y007646D02*
X016177Y007646D01*
X016242Y007804D02*
X015253Y007804D01*
X015253Y007963D02*
X016390Y007963D01*
X017077Y007963D02*
X019390Y007963D01*
X019410Y007983D02*
X019250Y007823D01*
X019163Y007613D01*
X019163Y007387D01*
X019250Y007177D01*
X019410Y007017D01*
X019620Y006930D01*
X019847Y006930D01*
X020056Y007017D01*
X020217Y007177D01*
X020303Y007387D01*
X020303Y007613D01*
X020217Y007823D01*
X020056Y007983D01*
X019847Y008070D01*
X019620Y008070D01*
X019410Y007983D01*
X019242Y007804D02*
X017224Y007804D01*
X017290Y007646D02*
X019177Y007646D01*
X019163Y007487D02*
X017303Y007487D01*
X017279Y007329D02*
X019187Y007329D01*
X019257Y007170D02*
X017209Y007170D01*
X017043Y007012D02*
X019423Y007012D01*
X020043Y007012D02*
X021213Y007012D01*
X021213Y007170D02*
X020209Y007170D01*
X020279Y007329D02*
X021213Y007329D01*
X021213Y007487D02*
X020303Y007487D01*
X020290Y007646D02*
X021213Y007646D01*
X021213Y007804D02*
X020224Y007804D01*
X020077Y007963D02*
X021213Y007963D01*
X021213Y008121D02*
X015253Y008121D01*
X015253Y008280D02*
X021213Y008280D01*
X021213Y008438D02*
X015253Y008438D01*
X015253Y008597D02*
X021213Y008597D01*
X021213Y008755D02*
X015253Y008755D01*
X015253Y008914D02*
X021213Y008914D01*
X021213Y009072D02*
X021111Y009072D01*
X021056Y009017D02*
X021213Y009174D01*
X021213Y004520D01*
X015253Y004520D01*
X015253Y009174D01*
X015410Y009017D01*
X015620Y008930D01*
X015847Y008930D01*
X016056Y009017D01*
X016217Y009177D01*
X016303Y009387D01*
X016303Y009613D01*
X016267Y009700D01*
X016980Y009700D01*
X017011Y009731D01*
X017052Y009717D01*
X017122Y009682D01*
X017140Y009688D01*
X017158Y009682D01*
X017163Y009685D01*
X017163Y009047D01*
X017280Y008930D01*
X018186Y008930D01*
X018303Y009047D01*
X018303Y009124D01*
X018410Y009017D01*
X018620Y008930D01*
X018847Y008930D01*
X019056Y009017D01*
X019217Y009177D01*
X019233Y009218D01*
X019250Y009177D01*
X019410Y009017D01*
X019620Y008930D01*
X019847Y008930D01*
X020056Y009017D01*
X020217Y009177D01*
X020233Y009218D01*
X020250Y009177D01*
X020410Y009017D01*
X020620Y008930D01*
X020847Y008930D01*
X021056Y009017D01*
X020355Y009072D02*
X020111Y009072D01*
X019355Y009072D02*
X019111Y009072D01*
X018355Y009072D02*
X018303Y009072D01*
X017163Y009072D02*
X016111Y009072D01*
X016239Y009231D02*
X017163Y009231D01*
X017163Y009389D02*
X016303Y009389D01*
X016303Y009548D02*
X017163Y009548D01*
X017074Y009706D02*
X016986Y009706D01*
X016060Y009980D02*
X016059Y009980D01*
X016060Y009980D01*
X016060Y009980D01*
X015407Y009980D02*
X015253Y009826D01*
X015253Y009980D01*
X015407Y009980D01*
X015292Y009865D02*
X015253Y009865D01*
X014013Y009865D02*
X013975Y009865D01*
X014013Y009826D02*
X013859Y009980D01*
X014013Y009980D01*
X014013Y009826D01*
X013207Y009980D02*
X013050Y009823D01*
X013033Y009782D01*
X013017Y009823D01*
X012859Y009980D01*
X013207Y009980D01*
X013092Y009865D02*
X012975Y009865D01*
X012207Y009980D02*
X012050Y009823D01*
X012033Y009782D01*
X012017Y009823D01*
X011859Y009980D01*
X012207Y009980D01*
X012092Y009865D02*
X011975Y009865D01*
X011207Y009980D02*
X011103Y009876D01*
X011103Y009953D01*
X011076Y009980D01*
X011207Y009980D01*
X009874Y009706D02*
X009786Y009706D01*
X011103Y009072D02*
X011155Y009072D01*
X011911Y009072D02*
X012155Y009072D01*
X012911Y009072D02*
X013155Y009072D01*
X015253Y009072D02*
X015355Y009072D01*
X018303Y009876D02*
X018303Y009953D01*
X018276Y009980D01*
X018407Y009980D01*
X018303Y009876D01*
X019059Y009980D02*
X019217Y009823D01*
X019233Y009782D01*
X019250Y009823D01*
X019407Y009980D01*
X019059Y009980D01*
X019175Y009865D02*
X019292Y009865D01*
X020059Y009980D02*
X020407Y009980D01*
X020250Y009823D01*
X020233Y009782D01*
X020217Y009823D01*
X020059Y009980D01*
X020175Y009865D02*
X020292Y009865D01*
X021059Y009980D02*
X021213Y009980D01*
X021213Y009826D01*
X021059Y009980D01*
X021175Y009865D02*
X021213Y009865D01*
X022453Y009424D02*
X022610Y009267D01*
X022651Y009250D01*
X022610Y009233D01*
X022453Y009076D01*
X022453Y009424D01*
X022453Y009389D02*
X022488Y009389D01*
X022453Y009231D02*
X022608Y009231D01*
X023216Y009250D02*
X023256Y009267D01*
X023417Y009427D01*
X023503Y009637D01*
X023503Y009863D01*
X023455Y009980D01*
X025863Y009980D01*
X025863Y009887D01*
X025881Y009844D01*
X025067Y009030D01*
X025028Y009030D01*
X023434Y009030D01*
X023417Y009073D01*
X023256Y009233D01*
X023216Y009250D01*
X023259Y009231D02*
X025268Y009231D01*
X025426Y009389D02*
X023378Y009389D01*
X023466Y009548D02*
X025585Y009548D01*
X025743Y009706D02*
X023503Y009706D01*
X023503Y009865D02*
X025872Y009865D01*
X026433Y010000D02*
X025183Y008750D01*
X025083Y008750D01*
X027833Y006000D01*
X027833Y005130D01*
X027279Y005110D02*
X023380Y005110D01*
X023417Y005073D02*
X023256Y005233D01*
X023047Y005320D01*
X022820Y005320D01*
X022610Y005233D01*
X022453Y005076D01*
X022453Y005447D01*
X022577Y005489D01*
X022708Y005445D01*
X022739Y005460D01*
X022850Y005350D01*
X023040Y005350D01*
X023129Y005439D01*
X023218Y005350D01*
X023409Y005350D01*
X023543Y005484D01*
X023543Y005711D01*
X023657Y005825D01*
X023657Y006015D01*
X023522Y006150D01*
X022736Y006150D01*
X022706Y006119D01*
X022665Y006133D01*
X022594Y006168D01*
X022577Y006162D01*
X022559Y006168D01*
X022489Y006133D01*
X022453Y006121D01*
X022453Y006207D01*
X022480Y006180D01*
X023386Y006180D01*
X023503Y006297D01*
X023503Y007203D01*
X023386Y007320D01*
X023309Y007320D01*
X023417Y007427D01*
X023503Y007637D01*
X023503Y007863D01*
X023417Y008073D01*
X023256Y008233D01*
X023216Y008250D01*
X023256Y008267D01*
X023417Y008427D01*
X023434Y008470D01*
X024967Y008470D01*
X027553Y005884D01*
X027553Y005614D01*
X027519Y005600D01*
X027363Y005444D01*
X027279Y005240D01*
X027279Y005020D01*
X027363Y004816D01*
X027519Y004660D01*
X027723Y004576D01*
X027944Y004576D01*
X028147Y004660D01*
X028303Y004816D01*
X028388Y005020D01*
X028388Y005240D01*
X028303Y005444D01*
X028147Y005600D01*
X028113Y005614D01*
X028113Y006056D01*
X028071Y006159D01*
X027992Y006237D01*
X026465Y007765D01*
X026625Y007765D01*
X026828Y007849D01*
X026984Y008005D01*
X027069Y008209D01*
X027069Y008429D01*
X026984Y008633D01*
X026828Y008789D01*
X026625Y008873D01*
X026404Y008873D01*
X026200Y008789D01*
X026044Y008633D01*
X025960Y008429D01*
X025960Y008269D01*
X025529Y008700D01*
X026277Y009448D01*
X026320Y009430D01*
X026547Y009430D01*
X026756Y009517D01*
X026917Y009677D01*
X027003Y009887D01*
X027003Y009980D01*
X028863Y009980D01*
X028863Y009887D01*
X028881Y009844D01*
X028596Y009559D01*
X028553Y009456D01*
X028553Y009116D01*
X028388Y008950D01*
X028388Y008980D01*
X028303Y009184D01*
X028147Y009340D01*
X027944Y009424D01*
X027723Y009424D01*
X027519Y009340D01*
X027363Y009184D01*
X027279Y008980D01*
X027279Y008760D01*
X027363Y008556D01*
X027519Y008400D01*
X027723Y008316D01*
X027944Y008316D01*
X028053Y008361D01*
X028053Y006444D01*
X028096Y006341D01*
X028175Y006263D01*
X028612Y005825D01*
X028598Y005791D01*
X028598Y005571D01*
X028682Y005367D01*
X028838Y005211D01*
X029042Y005127D01*
X029262Y005127D01*
X029466Y005211D01*
X029622Y005367D01*
X029707Y005571D01*
X029707Y005791D01*
X029622Y005995D01*
X029466Y006151D01*
X029262Y006235D01*
X029042Y006235D01*
X029008Y006221D01*
X028613Y006616D01*
X028613Y008171D01*
X028682Y008005D01*
X028838Y007849D01*
X029042Y007765D01*
X029262Y007765D01*
X029466Y007849D01*
X029622Y008005D01*
X029707Y008209D01*
X029707Y008429D01*
X029622Y008633D01*
X029466Y008789D01*
X029262Y008873D01*
X029084Y008873D01*
X029113Y008944D01*
X029113Y009284D01*
X029277Y009448D01*
X029320Y009430D01*
X029547Y009430D01*
X029756Y009517D01*
X029913Y009674D01*
X029913Y004520D01*
X023455Y004520D01*
X023503Y004637D01*
X023503Y004863D01*
X023417Y005073D01*
X023467Y004951D02*
X027307Y004951D01*
X027387Y004793D02*
X023503Y004793D01*
X023502Y004634D02*
X027582Y004634D01*
X028085Y004634D02*
X029913Y004634D01*
X029913Y004793D02*
X028280Y004793D01*
X028359Y004951D02*
X029913Y004951D01*
X029913Y005110D02*
X028388Y005110D01*
X028376Y005268D02*
X028781Y005268D01*
X028658Y005427D02*
X028310Y005427D01*
X028162Y005585D02*
X028598Y005585D01*
X028598Y005744D02*
X028113Y005744D01*
X028113Y005902D02*
X028535Y005902D01*
X028377Y006061D02*
X028111Y006061D01*
X028010Y006219D02*
X028218Y006219D01*
X028081Y006378D02*
X027852Y006378D01*
X027992Y006237D02*
X027992Y006237D01*
X028053Y006536D02*
X027693Y006536D01*
X027535Y006695D02*
X028053Y006695D01*
X028053Y006853D02*
X027376Y006853D01*
X027218Y007012D02*
X028053Y007012D01*
X028053Y007170D02*
X027059Y007170D01*
X026901Y007329D02*
X028053Y007329D01*
X028053Y007487D02*
X026742Y007487D01*
X026584Y007646D02*
X028053Y007646D01*
X028053Y007804D02*
X026720Y007804D01*
X026942Y007963D02*
X028053Y007963D01*
X028053Y008121D02*
X027032Y008121D01*
X027069Y008280D02*
X028053Y008280D01*
X028613Y008121D02*
X028634Y008121D01*
X028613Y007963D02*
X028725Y007963D01*
X028613Y007804D02*
X028947Y007804D01*
X028613Y007646D02*
X029913Y007646D01*
X029913Y007804D02*
X029358Y007804D01*
X029580Y007963D02*
X029913Y007963D01*
X029913Y008121D02*
X029670Y008121D01*
X029707Y008280D02*
X029913Y008280D01*
X029913Y008438D02*
X029703Y008438D01*
X029637Y008597D02*
X029913Y008597D01*
X029913Y008755D02*
X029500Y008755D01*
X029101Y008914D02*
X029913Y008914D01*
X029913Y009072D02*
X029113Y009072D01*
X029113Y009231D02*
X029913Y009231D01*
X029913Y009389D02*
X029218Y009389D01*
X028833Y009400D02*
X029433Y010000D01*
X028872Y009865D02*
X026994Y009865D01*
X026929Y009706D02*
X028743Y009706D01*
X028591Y009548D02*
X026787Y009548D01*
X027410Y009231D02*
X026060Y009231D01*
X026218Y009389D02*
X027638Y009389D01*
X028029Y009389D02*
X028553Y009389D01*
X028553Y009231D02*
X028257Y009231D01*
X028350Y009072D02*
X028509Y009072D01*
X028833Y009000D02*
X028833Y009400D01*
X029787Y009548D02*
X029913Y009548D01*
X028833Y009000D02*
X028333Y008500D01*
X028333Y006500D01*
X029152Y005681D01*
X029661Y005902D02*
X029913Y005902D01*
X029913Y005744D02*
X029707Y005744D01*
X029707Y005585D02*
X029913Y005585D01*
X029913Y005427D02*
X029647Y005427D01*
X029523Y005268D02*
X029913Y005268D01*
X029913Y006061D02*
X029557Y006061D01*
X029302Y006219D02*
X029913Y006219D01*
X029913Y006378D02*
X028852Y006378D01*
X028693Y006536D02*
X029913Y006536D01*
X029913Y006695D02*
X028613Y006695D01*
X028613Y006853D02*
X029913Y006853D01*
X029913Y007012D02*
X028613Y007012D01*
X028613Y007170D02*
X029913Y007170D01*
X029913Y007329D02*
X028613Y007329D01*
X028613Y007487D02*
X029913Y007487D01*
X027481Y008438D02*
X027065Y008438D01*
X026999Y008597D02*
X027347Y008597D01*
X027281Y008755D02*
X026862Y008755D01*
X027279Y008914D02*
X025743Y008914D01*
X025901Y009072D02*
X027317Y009072D01*
X026167Y008755D02*
X025584Y008755D01*
X025633Y008597D02*
X026029Y008597D01*
X025964Y008438D02*
X025791Y008438D01*
X025950Y008280D02*
X025960Y008280D01*
X025475Y007963D02*
X023462Y007963D01*
X023503Y007804D02*
X025633Y007804D01*
X025792Y007646D02*
X023503Y007646D01*
X023441Y007487D02*
X025950Y007487D01*
X026109Y007329D02*
X023318Y007329D01*
X023503Y007170D02*
X026267Y007170D01*
X026426Y007012D02*
X023503Y007012D01*
X023503Y006853D02*
X026584Y006853D01*
X026743Y006695D02*
X023503Y006695D01*
X023503Y006536D02*
X026901Y006536D01*
X027060Y006378D02*
X023503Y006378D01*
X023425Y006219D02*
X026365Y006219D01*
X026404Y006235D02*
X026200Y006151D01*
X026044Y005995D01*
X025960Y005791D01*
X025960Y005571D01*
X026044Y005367D01*
X026200Y005211D01*
X026404Y005127D01*
X026625Y005127D01*
X026828Y005211D01*
X026984Y005367D01*
X027069Y005571D01*
X027069Y005791D01*
X026984Y005995D01*
X026828Y006151D01*
X026625Y006235D01*
X026404Y006235D01*
X026664Y006219D02*
X027218Y006219D01*
X027377Y006061D02*
X026919Y006061D01*
X027023Y005902D02*
X027535Y005902D01*
X027553Y005744D02*
X027069Y005744D01*
X027069Y005585D02*
X027504Y005585D01*
X027356Y005427D02*
X027009Y005427D01*
X026885Y005268D02*
X027291Y005268D01*
X026144Y005268D02*
X023172Y005268D01*
X023141Y005427D02*
X023117Y005427D01*
X022773Y005427D02*
X022453Y005427D01*
X022453Y005268D02*
X022694Y005268D01*
X022487Y005110D02*
X022453Y005110D01*
X023485Y005427D02*
X026020Y005427D01*
X025960Y005585D02*
X023543Y005585D01*
X023576Y005744D02*
X025960Y005744D01*
X026006Y005902D02*
X023657Y005902D01*
X023612Y006061D02*
X026110Y006061D01*
X022557Y007320D02*
X022480Y007320D01*
X022453Y007293D01*
X022453Y007424D01*
X022557Y007320D01*
X022549Y007329D02*
X022453Y007329D01*
X022453Y008076D02*
X022453Y008424D01*
X022610Y008267D01*
X022651Y008250D01*
X022610Y008233D01*
X022453Y008076D01*
X022453Y008121D02*
X022498Y008121D01*
X022453Y008280D02*
X022598Y008280D01*
X023269Y008280D02*
X025158Y008280D01*
X024999Y008438D02*
X023421Y008438D01*
X023368Y008121D02*
X025316Y008121D01*
X025083Y008750D02*
X022933Y008750D01*
X023417Y009072D02*
X025109Y009072D01*
X022453Y011220D02*
X022453Y012137D01*
X022470Y012130D01*
X022697Y012130D01*
X022906Y012217D01*
X023067Y012377D01*
X023153Y012587D01*
X023153Y012813D01*
X023067Y013023D01*
X022906Y013183D01*
X022697Y013270D01*
X022470Y013270D01*
X022453Y013263D01*
X022453Y016680D01*
X023257Y016680D01*
X023100Y016523D01*
X023013Y016313D01*
X023013Y016087D01*
X023100Y015877D01*
X023260Y015717D01*
X023470Y015630D01*
X023697Y015630D01*
X023906Y015717D01*
X024067Y015877D01*
X024153Y016087D01*
X024153Y016313D01*
X024117Y016400D01*
X024830Y016400D01*
X024861Y016431D01*
X024902Y016417D01*
X024972Y016382D01*
X024990Y016388D01*
X025008Y016382D01*
X025013Y016385D01*
X025013Y015747D01*
X025130Y015630D01*
X026036Y015630D01*
X026153Y015747D01*
X026153Y015824D01*
X026260Y015717D01*
X026470Y015630D01*
X026697Y015630D01*
X026906Y015717D01*
X027067Y015877D01*
X027083Y015918D01*
X027100Y015877D01*
X027260Y015717D01*
X027470Y015630D01*
X027697Y015630D01*
X027906Y015717D01*
X028067Y015877D01*
X028083Y015918D01*
X028100Y015877D01*
X028260Y015717D01*
X028470Y015630D01*
X028697Y015630D01*
X028906Y015717D01*
X029067Y015877D01*
X029153Y016087D01*
X029153Y016313D01*
X029067Y016523D01*
X028909Y016680D01*
X029913Y016680D01*
X029913Y013176D01*
X029906Y013183D01*
X029697Y013270D01*
X029470Y013270D01*
X029260Y013183D01*
X029100Y013023D01*
X029013Y012813D01*
X029013Y012587D01*
X029100Y012377D01*
X029260Y012217D01*
X029470Y012130D01*
X029697Y012130D01*
X029906Y012217D01*
X029913Y012224D01*
X029913Y011220D01*
X022453Y011220D01*
X022453Y011291D02*
X029913Y011291D01*
X029913Y011450D02*
X022453Y011450D01*
X022453Y011608D02*
X029913Y011608D01*
X029913Y011767D02*
X022453Y011767D01*
X022453Y011925D02*
X029913Y011925D01*
X029913Y012084D02*
X022453Y012084D01*
X022931Y012242D02*
X029235Y012242D01*
X029090Y012401D02*
X023076Y012401D01*
X023142Y012559D02*
X029025Y012559D01*
X029013Y012718D02*
X023153Y012718D01*
X023127Y012876D02*
X029039Y012876D01*
X029112Y013035D02*
X023055Y013035D01*
X022883Y013193D02*
X029284Y013193D01*
X029883Y013193D02*
X029913Y013193D01*
X029913Y013352D02*
X022453Y013352D01*
X022453Y013510D02*
X029913Y013510D01*
X029913Y013669D02*
X027790Y013669D01*
X027697Y013630D02*
X027906Y013717D01*
X028067Y013877D01*
X028153Y014087D01*
X028153Y014313D01*
X028067Y014523D01*
X027906Y014683D01*
X027697Y014770D01*
X027470Y014770D01*
X027260Y014683D01*
X027100Y014523D01*
X027013Y014313D01*
X027013Y014087D01*
X027100Y013877D01*
X027260Y013717D01*
X027470Y013630D01*
X027697Y013630D01*
X027377Y013669D02*
X024790Y013669D01*
X024697Y013630D02*
X024906Y013717D01*
X025067Y013877D01*
X025153Y014087D01*
X025153Y014313D01*
X025067Y014523D01*
X024906Y014683D01*
X024697Y014770D01*
X024470Y014770D01*
X024260Y014683D01*
X024100Y014523D01*
X024013Y014313D01*
X024013Y014087D01*
X024100Y013877D01*
X024260Y013717D01*
X024470Y013630D01*
X024697Y013630D01*
X024377Y013669D02*
X022453Y013669D01*
X022453Y013827D02*
X024150Y013827D01*
X024055Y013986D02*
X022453Y013986D01*
X022453Y014144D02*
X024013Y014144D01*
X024013Y014303D02*
X022453Y014303D01*
X022453Y014461D02*
X024074Y014461D01*
X024197Y014620D02*
X022453Y014620D01*
X022453Y014778D02*
X029913Y014778D01*
X029913Y014620D02*
X027970Y014620D01*
X028092Y014461D02*
X029913Y014461D01*
X029913Y014303D02*
X028153Y014303D01*
X028153Y014144D02*
X029913Y014144D01*
X029913Y013986D02*
X028111Y013986D01*
X028016Y013827D02*
X029913Y013827D01*
X029913Y014937D02*
X022453Y014937D01*
X022453Y015095D02*
X029913Y015095D01*
X029913Y015254D02*
X022453Y015254D01*
X022453Y015412D02*
X029913Y015412D01*
X029913Y015571D02*
X022453Y015571D01*
X022453Y015729D02*
X023248Y015729D01*
X023096Y015888D02*
X022453Y015888D01*
X022453Y016046D02*
X023030Y016046D01*
X023013Y016205D02*
X022453Y016205D01*
X022453Y016363D02*
X023034Y016363D01*
X023100Y016522D02*
X022453Y016522D01*
X021213Y016526D02*
X021059Y016680D01*
X021213Y016680D01*
X021213Y016526D01*
X020407Y016680D02*
X020250Y016523D01*
X020233Y016482D01*
X020217Y016523D01*
X020059Y016680D01*
X020407Y016680D01*
X020250Y016522D02*
X020217Y016522D01*
X019407Y016680D02*
X019250Y016523D01*
X019233Y016482D01*
X019217Y016523D01*
X019059Y016680D01*
X019407Y016680D01*
X019250Y016522D02*
X019217Y016522D01*
X018407Y016680D02*
X018303Y016576D01*
X018303Y016653D01*
X018276Y016680D01*
X018407Y016680D01*
X017163Y016460D02*
X017108Y016432D01*
X017090Y016438D01*
X017072Y016432D01*
X017002Y016467D01*
X016961Y016481D01*
X016930Y016450D01*
X016562Y016450D01*
X016247Y016450D01*
X016303Y016313D01*
X016303Y016087D01*
X016217Y015877D01*
X016056Y015717D01*
X015847Y015630D01*
X015620Y015630D01*
X015410Y015717D01*
X015253Y015874D01*
X015253Y011220D01*
X021213Y011220D01*
X021213Y015874D01*
X021056Y015717D01*
X020847Y015630D01*
X020620Y015630D01*
X020410Y015717D01*
X020250Y015877D01*
X020233Y015918D01*
X020217Y015877D01*
X020056Y015717D01*
X019847Y015630D01*
X019620Y015630D01*
X019410Y015717D01*
X019250Y015877D01*
X019233Y015918D01*
X019217Y015877D01*
X019056Y015717D01*
X018847Y015630D01*
X018620Y015630D01*
X018410Y015717D01*
X018303Y015824D01*
X018303Y015747D01*
X018186Y015630D01*
X017280Y015630D01*
X017163Y015747D01*
X017163Y016460D01*
X017163Y016363D02*
X016283Y016363D01*
X016303Y016205D02*
X017163Y016205D01*
X017163Y016046D02*
X016287Y016046D01*
X016221Y015888D02*
X017163Y015888D01*
X017181Y015729D02*
X016068Y015729D01*
X015398Y015729D02*
X015253Y015729D01*
X015253Y015571D02*
X021213Y015571D01*
X021213Y015729D02*
X021068Y015729D01*
X021213Y015412D02*
X015253Y015412D01*
X015253Y015254D02*
X021213Y015254D01*
X021213Y015095D02*
X015253Y015095D01*
X015253Y014937D02*
X021213Y014937D01*
X021213Y014778D02*
X015253Y014778D01*
X015253Y014620D02*
X016347Y014620D01*
X016410Y014683D02*
X016250Y014523D01*
X016163Y014313D01*
X016163Y014087D01*
X016250Y013877D01*
X016410Y013717D01*
X016620Y013630D01*
X016847Y013630D01*
X017056Y013717D01*
X017217Y013877D01*
X017303Y014087D01*
X017303Y014313D01*
X017217Y014523D01*
X017056Y014683D01*
X016847Y014770D01*
X016620Y014770D01*
X016410Y014683D01*
X017120Y014620D02*
X019347Y014620D01*
X019410Y014683D02*
X019250Y014523D01*
X019163Y014313D01*
X019163Y014087D01*
X019250Y013877D01*
X019410Y013717D01*
X019620Y013630D01*
X019847Y013630D01*
X020056Y013717D01*
X020217Y013877D01*
X020303Y014087D01*
X020303Y014313D01*
X020217Y014523D01*
X020056Y014683D01*
X019847Y014770D01*
X019620Y014770D01*
X019410Y014683D01*
X020120Y014620D02*
X021213Y014620D01*
X021213Y014461D02*
X020242Y014461D01*
X020303Y014303D02*
X021213Y014303D01*
X021213Y014144D02*
X020303Y014144D01*
X020261Y013986D02*
X021213Y013986D01*
X021213Y013827D02*
X020166Y013827D01*
X019940Y013669D02*
X021213Y013669D01*
X021213Y013510D02*
X015253Y013510D01*
X015253Y013352D02*
X021213Y013352D01*
X021213Y013193D02*
X019033Y013193D01*
X019056Y013183D02*
X018847Y013270D01*
X018620Y013270D01*
X018410Y013183D01*
X018250Y013023D01*
X018233Y012982D01*
X018217Y013023D01*
X018056Y013183D01*
X017847Y013270D01*
X017620Y013270D01*
X017410Y013183D01*
X017250Y013023D01*
X017163Y012813D01*
X017163Y012587D01*
X017250Y012377D01*
X017410Y012217D01*
X017620Y012130D01*
X017847Y012130D01*
X018056Y012217D01*
X018217Y012377D01*
X018233Y012418D01*
X018250Y012377D01*
X018410Y012217D01*
X018620Y012130D01*
X018847Y012130D01*
X019056Y012217D01*
X019217Y012377D01*
X019303Y012587D01*
X019303Y012813D01*
X019217Y013023D01*
X019056Y013183D01*
X019205Y013035D02*
X021213Y013035D01*
X021213Y012876D02*
X019277Y012876D01*
X019303Y012718D02*
X021213Y012718D01*
X021213Y012559D02*
X019292Y012559D01*
X019226Y012401D02*
X021213Y012401D01*
X021213Y012242D02*
X019081Y012242D01*
X018385Y012242D02*
X018081Y012242D01*
X018226Y012401D02*
X018240Y012401D01*
X017385Y012242D02*
X015253Y012242D01*
X015253Y012084D02*
X021213Y012084D01*
X021213Y011925D02*
X015253Y011925D01*
X015253Y011767D02*
X021213Y011767D01*
X021213Y011608D02*
X015253Y011608D01*
X015253Y011450D02*
X021213Y011450D01*
X021213Y011291D02*
X015253Y011291D01*
X014013Y011291D02*
X008053Y011291D01*
X008053Y011220D02*
X008053Y015874D01*
X008210Y015717D01*
X008420Y015630D01*
X008647Y015630D01*
X008856Y015717D01*
X009017Y015877D01*
X009103Y016087D01*
X009103Y016313D01*
X009047Y016450D01*
X009362Y016450D01*
X009730Y016450D01*
X009761Y016481D01*
X009802Y016467D01*
X009872Y016432D01*
X009890Y016438D01*
X009908Y016432D01*
X009963Y016460D01*
X009963Y015747D01*
X010080Y015630D01*
X010986Y015630D01*
X011103Y015747D01*
X011103Y015824D01*
X011210Y015717D01*
X011420Y015630D01*
X011647Y015630D01*
X011856Y015717D01*
X012017Y015877D01*
X012033Y015918D01*
X012050Y015877D01*
X012210Y015717D01*
X012420Y015630D01*
X012647Y015630D01*
X012856Y015717D01*
X013017Y015877D01*
X013033Y015918D01*
X013050Y015877D01*
X013210Y015717D01*
X013420Y015630D01*
X013647Y015630D01*
X013856Y015717D01*
X014013Y015874D01*
X014013Y011220D01*
X008053Y011220D01*
X008053Y011450D02*
X014013Y011450D01*
X014013Y011608D02*
X008053Y011608D01*
X008053Y011767D02*
X014013Y011767D01*
X014013Y011925D02*
X008053Y011925D01*
X008053Y012084D02*
X014013Y012084D01*
X014013Y012242D02*
X011881Y012242D01*
X011856Y012217D02*
X012017Y012377D01*
X012103Y012587D01*
X012103Y012813D01*
X012017Y013023D01*
X011856Y013183D01*
X011647Y013270D01*
X011420Y013270D01*
X011210Y013183D01*
X011050Y013023D01*
X011033Y012982D01*
X011017Y013023D01*
X010856Y013183D01*
X010647Y013270D01*
X010420Y013270D01*
X010210Y013183D01*
X010050Y013023D01*
X009963Y012813D01*
X009963Y012587D01*
X010050Y012377D01*
X010210Y012217D01*
X010420Y012130D01*
X010647Y012130D01*
X010856Y012217D01*
X011017Y012377D01*
X011033Y012418D01*
X011050Y012377D01*
X011210Y012217D01*
X011420Y012130D01*
X011647Y012130D01*
X011856Y012217D01*
X012026Y012401D02*
X014013Y012401D01*
X014013Y012559D02*
X012092Y012559D01*
X012103Y012718D02*
X014013Y012718D01*
X014013Y012876D02*
X012077Y012876D01*
X012005Y013035D02*
X014013Y013035D01*
X014013Y013193D02*
X011833Y013193D01*
X011234Y013193D02*
X010833Y013193D01*
X011005Y013035D02*
X011062Y013035D01*
X010234Y013193D02*
X008053Y013193D01*
X008053Y013035D02*
X010062Y013035D01*
X009989Y012876D02*
X008053Y012876D01*
X008053Y012718D02*
X009963Y012718D01*
X009975Y012559D02*
X008053Y012559D01*
X008053Y012401D02*
X010040Y012401D01*
X010185Y012242D02*
X008053Y012242D01*
X006813Y012242D02*
X005683Y012242D01*
X005683Y012197D02*
X005597Y011987D01*
X005436Y011827D01*
X005227Y011740D01*
X005000Y011740D01*
X004790Y011827D01*
X004630Y011987D01*
X004543Y012197D01*
X004543Y012423D01*
X004630Y012633D01*
X004790Y012793D01*
X005000Y012880D01*
X005227Y012880D01*
X005436Y012793D01*
X005597Y012633D01*
X005683Y012423D01*
X005683Y012197D01*
X005636Y012084D02*
X006813Y012084D01*
X006813Y011925D02*
X005534Y011925D01*
X005291Y011767D02*
X006212Y011767D01*
X006220Y011770D02*
X006010Y011683D01*
X005850Y011523D01*
X005763Y011313D01*
X005763Y011220D01*
X000853Y011220D01*
X000853Y015874D01*
X001010Y015717D01*
X001220Y015630D01*
X001447Y015630D01*
X001656Y015717D01*
X001817Y015877D01*
X001903Y016087D01*
X001903Y016313D01*
X001847Y016450D01*
X002430Y016450D01*
X002461Y016481D01*
X002502Y016467D01*
X002572Y016432D01*
X002590Y016438D01*
X002608Y016432D01*
X002678Y016467D01*
X002753Y016492D01*
X002761Y016509D01*
X002763Y016510D01*
X002763Y015747D01*
X002880Y015630D01*
X003786Y015630D01*
X003903Y015747D01*
X003903Y015824D01*
X004010Y015717D01*
X004220Y015630D01*
X004447Y015630D01*
X004656Y015717D01*
X004817Y015877D01*
X004833Y015918D01*
X004850Y015877D01*
X005010Y015717D01*
X005220Y015630D01*
X005447Y015630D01*
X005656Y015717D01*
X005817Y015877D01*
X005833Y015918D01*
X005850Y015877D01*
X006010Y015717D01*
X006083Y015687D01*
X006083Y015604D01*
X005730Y015250D01*
X004284Y015250D01*
X004192Y015212D01*
X003692Y014712D01*
X003621Y014642D01*
X003583Y014550D01*
X003583Y012604D01*
X003540Y012560D01*
X003067Y012560D01*
X003037Y012633D01*
X002876Y012793D01*
X002667Y012880D01*
X002440Y012880D01*
X002230Y012793D01*
X002070Y012633D01*
X001983Y012423D01*
X001983Y012197D01*
X002070Y011987D01*
X002230Y011827D01*
X002440Y011740D01*
X002667Y011740D01*
X002876Y011827D01*
X003037Y011987D01*
X003067Y012060D01*
X003693Y012060D01*
X003785Y012098D01*
X004045Y012358D01*
X004083Y012450D01*
X004083Y014396D01*
X004437Y014750D01*
X005883Y014750D01*
X005975Y014788D01*
X006045Y014858D01*
X006545Y015358D01*
X006583Y015450D01*
X006583Y015687D01*
X006656Y015717D01*
X006813Y015874D01*
X006813Y014526D01*
X006656Y014683D01*
X006447Y014770D01*
X006220Y014770D01*
X006010Y014683D01*
X005850Y014523D01*
X005763Y014313D01*
X005763Y014087D01*
X005850Y013877D01*
X006010Y013717D01*
X006220Y013630D01*
X006447Y013630D01*
X006656Y013717D01*
X006813Y013874D01*
X006813Y011526D01*
X006656Y011683D01*
X006447Y011770D01*
X006220Y011770D01*
X006455Y011767D02*
X006813Y011767D01*
X006813Y011608D02*
X006731Y011608D01*
X005935Y011608D02*
X000853Y011608D01*
X000853Y011450D02*
X005820Y011450D01*
X005763Y011291D02*
X000853Y011291D01*
X000853Y011767D02*
X002376Y011767D01*
X002132Y011925D02*
X000853Y011925D01*
X000853Y012084D02*
X002030Y012084D01*
X001983Y012242D02*
X000853Y012242D01*
X000853Y012401D02*
X001983Y012401D01*
X002040Y012559D02*
X000853Y012559D01*
X000853Y012718D02*
X002155Y012718D01*
X002430Y012876D02*
X000853Y012876D01*
X000853Y013035D02*
X003583Y013035D01*
X003583Y013193D02*
X000853Y013193D01*
X000853Y013352D02*
X003583Y013352D01*
X003583Y013510D02*
X000853Y013510D01*
X000853Y013669D02*
X002169Y013669D01*
X002230Y013607D02*
X002440Y013520D01*
X002667Y013520D01*
X002876Y013607D01*
X003037Y013767D01*
X003123Y013977D01*
X003123Y014203D01*
X003037Y014413D01*
X002876Y014573D01*
X002667Y014660D01*
X002440Y014660D01*
X002230Y014573D01*
X002070Y014413D01*
X001983Y014203D01*
X001983Y013977D01*
X002070Y013767D01*
X002230Y013607D01*
X002938Y013669D02*
X003583Y013669D01*
X003583Y013827D02*
X003061Y013827D01*
X003123Y013986D02*
X003583Y013986D01*
X003583Y014144D02*
X003123Y014144D01*
X003082Y014303D02*
X003583Y014303D01*
X003583Y014461D02*
X002988Y014461D01*
X002764Y014620D02*
X003612Y014620D01*
X003758Y014778D02*
X000853Y014778D01*
X000853Y014620D02*
X002342Y014620D01*
X002118Y014461D02*
X000853Y014461D01*
X000853Y014303D02*
X002024Y014303D01*
X001983Y014144D02*
X000853Y014144D01*
X000853Y013986D02*
X001983Y013986D01*
X002045Y013827D02*
X000853Y013827D01*
X000853Y014937D02*
X003916Y014937D01*
X004075Y015095D02*
X000853Y015095D01*
X000853Y015254D02*
X005733Y015254D01*
X005892Y015412D02*
X000853Y015412D01*
X000853Y015571D02*
X006050Y015571D01*
X005998Y015729D02*
X005668Y015729D01*
X005821Y015888D02*
X005846Y015888D01*
X006583Y015571D02*
X006813Y015571D01*
X006813Y015729D02*
X006668Y015729D01*
X006567Y015412D02*
X006813Y015412D01*
X006813Y015254D02*
X006440Y015254D01*
X006282Y015095D02*
X006813Y015095D01*
X006813Y014937D02*
X006123Y014937D01*
X005951Y014778D02*
X006813Y014778D01*
X006813Y014620D02*
X006720Y014620D01*
X005947Y014620D02*
X005324Y014620D01*
X005227Y014660D02*
X005000Y014660D01*
X004790Y014573D01*
X004630Y014413D01*
X004543Y014203D01*
X004543Y013977D01*
X004630Y013767D01*
X004790Y013607D01*
X005000Y013520D01*
X005227Y013520D01*
X005436Y013607D01*
X005597Y013767D01*
X005683Y013977D01*
X005683Y014203D01*
X005597Y014413D01*
X005436Y014573D01*
X005227Y014660D01*
X004902Y014620D02*
X004306Y014620D01*
X004148Y014461D02*
X004678Y014461D01*
X004584Y014303D02*
X004083Y014303D01*
X004083Y014144D02*
X004543Y014144D01*
X004543Y013986D02*
X004083Y013986D01*
X004083Y013827D02*
X004605Y013827D01*
X004729Y013669D02*
X004083Y013669D01*
X004083Y013510D02*
X006813Y013510D01*
X006813Y013352D02*
X004083Y013352D01*
X004083Y013193D02*
X006813Y013193D01*
X006813Y013035D02*
X004083Y013035D01*
X004083Y012876D02*
X004990Y012876D01*
X005236Y012876D02*
X006813Y012876D01*
X006813Y012718D02*
X005512Y012718D01*
X005627Y012559D02*
X006813Y012559D01*
X006813Y012401D02*
X005683Y012401D01*
X004715Y012718D02*
X004083Y012718D01*
X004083Y012559D02*
X004600Y012559D01*
X004543Y012401D02*
X004063Y012401D01*
X003929Y012242D02*
X004543Y012242D01*
X004590Y012084D02*
X003750Y012084D01*
X002974Y011925D02*
X004692Y011925D01*
X004936Y011767D02*
X002731Y011767D01*
X002952Y012718D02*
X003583Y012718D01*
X003583Y012876D02*
X002676Y012876D01*
X005498Y013669D02*
X006127Y013669D01*
X005900Y013827D02*
X005621Y013827D01*
X005683Y013986D02*
X005805Y013986D01*
X005763Y014144D02*
X005683Y014144D01*
X005642Y014303D02*
X005763Y014303D01*
X005824Y014461D02*
X005548Y014461D01*
X006766Y013827D02*
X006813Y013827D01*
X006813Y013669D02*
X006540Y013669D01*
X008053Y013669D02*
X009327Y013669D01*
X009420Y013630D02*
X009647Y013630D01*
X009856Y013717D01*
X010017Y013877D01*
X010103Y014087D01*
X010103Y014313D01*
X010017Y014523D01*
X009856Y014683D01*
X009647Y014770D01*
X009420Y014770D01*
X009210Y014683D01*
X009050Y014523D01*
X008963Y014313D01*
X008963Y014087D01*
X009050Y013877D01*
X009210Y013717D01*
X009420Y013630D01*
X009740Y013669D02*
X012327Y013669D01*
X012420Y013630D02*
X012647Y013630D01*
X012856Y013717D01*
X013017Y013877D01*
X013103Y014087D01*
X013103Y014313D01*
X013017Y014523D01*
X012856Y014683D01*
X012647Y014770D01*
X012420Y014770D01*
X012210Y014683D01*
X012050Y014523D01*
X011963Y014313D01*
X011963Y014087D01*
X012050Y013877D01*
X012210Y013717D01*
X012420Y013630D01*
X012740Y013669D02*
X014013Y013669D01*
X014013Y013827D02*
X012966Y013827D01*
X013061Y013986D02*
X014013Y013986D01*
X014013Y014144D02*
X013103Y014144D01*
X013103Y014303D02*
X014013Y014303D01*
X014013Y014461D02*
X013042Y014461D01*
X012920Y014620D02*
X014013Y014620D01*
X014013Y014778D02*
X008053Y014778D01*
X008053Y014620D02*
X009147Y014620D01*
X009024Y014461D02*
X008053Y014461D01*
X008053Y014303D02*
X008963Y014303D01*
X008963Y014144D02*
X008053Y014144D01*
X008053Y013986D02*
X009005Y013986D01*
X009100Y013827D02*
X008053Y013827D01*
X008053Y013510D02*
X014013Y013510D01*
X014013Y013352D02*
X008053Y013352D01*
X009966Y013827D02*
X012100Y013827D01*
X012005Y013986D02*
X010061Y013986D01*
X010103Y014144D02*
X011963Y014144D01*
X011963Y014303D02*
X010103Y014303D01*
X010042Y014461D02*
X012024Y014461D01*
X012147Y014620D02*
X009920Y014620D01*
X008053Y014937D02*
X014013Y014937D01*
X014013Y015095D02*
X008053Y015095D01*
X008053Y015254D02*
X014013Y015254D01*
X014013Y015412D02*
X008053Y015412D01*
X008053Y015571D02*
X014013Y015571D01*
X014013Y015729D02*
X013868Y015729D01*
X013198Y015729D02*
X012868Y015729D01*
X013021Y015888D02*
X013046Y015888D01*
X012198Y015729D02*
X011868Y015729D01*
X012021Y015888D02*
X012046Y015888D01*
X011198Y015729D02*
X011085Y015729D01*
X009981Y015729D02*
X008868Y015729D01*
X009021Y015888D02*
X009963Y015888D01*
X009963Y016046D02*
X009087Y016046D01*
X009103Y016205D02*
X009963Y016205D01*
X009963Y016363D02*
X009083Y016363D01*
X008207Y016680D02*
X008053Y016526D01*
X008053Y016680D01*
X008207Y016680D01*
X006813Y016680D02*
X006813Y016526D01*
X006659Y016680D01*
X006813Y016680D01*
X006007Y016680D02*
X005850Y016523D01*
X005833Y016482D01*
X005817Y016523D01*
X005659Y016680D01*
X006007Y016680D01*
X005850Y016522D02*
X005817Y016522D01*
X005007Y016680D02*
X004850Y016523D01*
X004833Y016482D01*
X004817Y016523D01*
X004659Y016680D01*
X005007Y016680D01*
X004850Y016522D02*
X004817Y016522D01*
X004007Y016680D02*
X003903Y016576D01*
X003903Y016653D01*
X003876Y016680D01*
X004007Y016680D01*
X002763Y016363D02*
X001883Y016363D01*
X001903Y016205D02*
X002763Y016205D01*
X002763Y016046D02*
X001887Y016046D01*
X001821Y015888D02*
X002763Y015888D01*
X002781Y015729D02*
X001668Y015729D01*
X000998Y015729D02*
X000853Y015729D01*
X000853Y016526D02*
X000853Y016680D01*
X001007Y016680D01*
X000853Y016526D01*
X003885Y015729D02*
X003998Y015729D01*
X004668Y015729D02*
X004998Y015729D01*
X004846Y015888D02*
X004821Y015888D01*
X008053Y015729D02*
X008198Y015729D01*
X011103Y016576D02*
X011103Y016653D01*
X011076Y016680D01*
X011207Y016680D01*
X011103Y016576D01*
X011859Y016680D02*
X012017Y016523D01*
X012033Y016482D01*
X012050Y016523D01*
X012207Y016680D01*
X011859Y016680D01*
X012017Y016522D02*
X012050Y016522D01*
X012859Y016680D02*
X013207Y016680D01*
X013050Y016523D01*
X013033Y016482D01*
X013017Y016523D01*
X012859Y016680D01*
X013017Y016522D02*
X013050Y016522D01*
X013859Y016680D02*
X014013Y016526D01*
X014013Y016680D01*
X013859Y016680D01*
X015253Y016680D02*
X015253Y016526D01*
X015407Y016680D01*
X015253Y016680D01*
X018285Y015729D02*
X018398Y015729D01*
X019068Y015729D02*
X019398Y015729D01*
X019246Y015888D02*
X019221Y015888D01*
X020068Y015729D02*
X020398Y015729D01*
X020246Y015888D02*
X020221Y015888D01*
X019224Y014461D02*
X017242Y014461D01*
X017303Y014303D02*
X019163Y014303D01*
X019163Y014144D02*
X017303Y014144D01*
X017261Y013986D02*
X019205Y013986D01*
X019300Y013827D02*
X017166Y013827D01*
X016940Y013669D02*
X019527Y013669D01*
X018434Y013193D02*
X018033Y013193D01*
X018205Y013035D02*
X018262Y013035D01*
X017434Y013193D02*
X015253Y013193D01*
X015253Y013035D02*
X017262Y013035D01*
X017189Y012876D02*
X015253Y012876D01*
X015253Y012718D02*
X017163Y012718D01*
X017175Y012559D02*
X015253Y012559D01*
X015253Y012401D02*
X017240Y012401D01*
X016527Y013669D02*
X015253Y013669D01*
X015253Y013827D02*
X016300Y013827D01*
X016205Y013986D02*
X015253Y013986D01*
X015253Y014144D02*
X016163Y014144D01*
X016163Y014303D02*
X015253Y014303D01*
X015253Y014461D02*
X016224Y014461D01*
X011185Y012242D02*
X010881Y012242D01*
X011026Y012401D02*
X011040Y012401D01*
X023918Y015729D02*
X025031Y015729D01*
X025013Y015888D02*
X024071Y015888D01*
X024137Y016046D02*
X025013Y016046D01*
X025013Y016205D02*
X024153Y016205D01*
X024133Y016363D02*
X025013Y016363D01*
X026126Y016680D02*
X026257Y016680D01*
X026153Y016576D01*
X026153Y016653D01*
X026126Y016680D01*
X026909Y016680D02*
X027067Y016523D01*
X027083Y016482D01*
X027100Y016523D01*
X027257Y016680D01*
X026909Y016680D01*
X027067Y016522D02*
X027100Y016522D01*
X027909Y016680D02*
X028257Y016680D01*
X028100Y016523D01*
X028083Y016482D01*
X028067Y016523D01*
X027909Y016680D01*
X028067Y016522D02*
X028100Y016522D01*
X029067Y016522D02*
X029913Y016522D01*
X029913Y016363D02*
X029133Y016363D01*
X029153Y016205D02*
X029913Y016205D01*
X029913Y016046D02*
X029137Y016046D01*
X029071Y015888D02*
X029913Y015888D01*
X029913Y015729D02*
X028918Y015729D01*
X028248Y015729D02*
X027918Y015729D01*
X028071Y015888D02*
X028096Y015888D01*
X027248Y015729D02*
X026918Y015729D01*
X027071Y015888D02*
X027096Y015888D01*
X026248Y015729D02*
X026135Y015729D01*
X027197Y014620D02*
X024970Y014620D01*
X025092Y014461D02*
X027074Y014461D01*
X027013Y014303D02*
X025153Y014303D01*
X025153Y014144D02*
X027013Y014144D01*
X027055Y013986D02*
X025111Y013986D01*
X025016Y013827D02*
X027150Y013827D01*
X023910Y016680D02*
X023909Y016680D01*
X023910Y016680D01*
X023910Y016680D01*
X011449Y006378D02*
X010618Y006378D01*
X010729Y006219D02*
X011338Y006219D01*
X011291Y006061D02*
X010776Y006061D01*
X010776Y005902D02*
X011291Y005902D01*
X011353Y005744D02*
X010713Y005744D01*
X010580Y005585D02*
X011486Y005585D01*
X014013Y005268D02*
X008053Y005268D01*
X008053Y005110D02*
X014013Y005110D01*
X014013Y004951D02*
X008053Y004951D01*
X008053Y004793D02*
X014013Y004793D01*
X014013Y004634D02*
X008053Y004634D01*
X015253Y004634D02*
X021213Y004634D01*
X021213Y004793D02*
X015253Y004793D01*
X015253Y004951D02*
X021213Y004951D01*
X021213Y005110D02*
X015253Y005110D01*
X015253Y005268D02*
X021213Y005268D01*
X018342Y005585D02*
X018124Y005585D01*
D16*
X003833Y012500D02*
X003643Y012310D01*
X002553Y012310D01*
X003833Y012500D02*
X003833Y014500D01*
X004333Y015000D01*
X005833Y015000D01*
X006333Y015500D01*
X006333Y016200D01*
M02*
