%
M48
M72
T01C0.0315
T02C0.0320
T03C0.0354
T04C0.0400
T05C0.0472
%
T01
X10246Y6000
X11821Y6000
T02
X3833Y5750
X3333Y6500
X4333Y6500
T03
X9533Y7500
X12533Y7500
X16733Y7500
X19733Y7500
X26433Y10000
X29433Y10000
X27583Y14200
X24583Y14200
X19733Y14200
X16733Y14200
X12533Y14200
X9533Y14200
X6333Y14200
X6333Y11200
T04
X5113Y12310
X2553Y12310
X2553Y14090
X5113Y14090
X5333Y16200
X4333Y16200
X3333Y16200
X1333Y16200
X6333Y16200
X8533Y16200
X10533Y16200
X11533Y16200
X12533Y16200
X13533Y16200
X15733Y16200
X17733Y16200
X18733Y16200
X19733Y16200
X20733Y16200
X23583Y16200
X25583Y16200
X26583Y16200
X27583Y16200
X28583Y16200
X29583Y12700
X22583Y12700
X18733Y12700
X17733Y12700
X11533Y12700
X10533Y12700
X10533Y9500
X11533Y9500
X12533Y9500
X13533Y9500
X15733Y9500
X17733Y9500
X18733Y9500
X19733Y9500
X20733Y9500
X22933Y9750
X22933Y8750
X22933Y7750
X22933Y6750
X18733Y6000
X17733Y6000
X22933Y4750
X8533Y9500
X6333Y9500
X5333Y9500
X4333Y9500
X3333Y9500
X1333Y9500
T05
X26514Y8319
X27833Y8870
X29152Y8319
X29152Y5681
X27833Y5130
X26514Y5681
M30
